<svg width="301" height="104" viewBox="0 0 301 104" fill="none" xmlns="http://www.w3.org/2000/svg">
<rect width="301" height="104" fill="#191A2E"/>
<g clip-path="url(#clip0_9_2)">
<path d="M107.3 26.4937C110.439 28.9118 113.204 31.9045 114.807 35.5977C114.998 35.3882 114.998 35.3882 115.192 35.1745C119.46 30.6534 125.23 27.8535 131.45 27.6924C132.027 27.688 132.603 27.6871 133.179 27.6897C133.405 27.6903 133.405 27.6903 133.635 27.691C135.858 27.7014 137.903 27.803 140.042 28.4531C140.316 28.5289 140.591 28.6046 140.873 28.6827C143.38 29.4414 145.6 30.6728 147.772 32.1406C147.941 31.8412 147.941 31.8412 148.113 31.5356C149.226 29.8548 150.992 28.9565 152.905 28.563C153.835 28.4316 154.738 28.4158 155.676 28.4144C155.865 28.4136 156.055 28.4129 156.25 28.4121C156.65 28.4109 157.049 28.4104 157.449 28.4104C158.054 28.4099 158.659 28.4057 159.264 28.4014C164.251 28.3837 164.251 28.3837 166.045 29.6343C166.83 30.1763 167.013 30.2969 168.005 30.2969C168.559 29.9837 169.069 29.6257 169.592 29.2616C171.541 28.2758 173.718 28.3822 175.849 28.3955C176.134 28.3937 176.419 28.3919 176.713 28.3901C180.869 28.3989 180.869 28.3989 182.641 29.6343C183.426 30.1763 183.61 30.2969 184.602 30.2969C185.155 29.9837 185.665 29.6257 186.188 29.2616C188.239 28.2245 190.584 28.3849 192.821 28.3919C193.175 28.3916 193.528 28.3911 193.881 28.3906C194.618 28.3899 195.355 28.3909 196.091 28.393C197.03 28.3957 197.969 28.3941 198.907 28.3914C199.635 28.3897 200.364 28.3903 201.092 28.3914C201.438 28.3917 201.784 28.3914 202.13 28.3903C206.974 28.3785 206.974 28.3785 208.785 29.6199C209.7 30.242 209.7 30.242 210.746 30.5273C211.176 30.3313 211.176 30.3313 211.583 30.0124C212.557 29.3507 213.525 28.9802 214.639 28.626C214.815 28.5672 214.99 28.5083 215.171 28.4477C221.447 26.3885 228.433 28.0481 234.162 30.9595C234.618 31.1977 235.073 31.437 235.527 31.6797C235.632 31.5819 235.738 31.4842 235.846 31.3835C240.003 27.8068 245.302 27.4161 250.531 27.7617C253.002 28.0374 255.34 28.6851 257.636 29.6388C258.79 30.0027 259.611 29.4115 260.645 28.8997C262.303 28.2725 264.128 28.416 265.869 28.4144C266.314 28.4133 266.314 28.4133 266.769 28.4121C267.397 28.4107 268.025 28.4103 268.653 28.4104C269.29 28.4104 269.927 28.4089 270.564 28.4057C277.268 28.373 283.588 28.501 288.725 33.5234C292.388 37.7519 293.365 42.3575 293.095 47.8364C292.907 50.3094 292.141 52.4173 290.904 54.5492C290.785 54.7598 290.666 54.9705 290.544 55.1875C290.433 55.3767 290.322 55.566 290.208 55.761C290.015 56.3787 290.015 56.3787 290.462 57.0024C290.656 57.2458 290.854 57.4857 291.055 57.7227C291.268 57.9888 291.482 58.255 291.695 58.5212C291.861 58.7239 291.861 58.7239 292.03 58.9307C294.321 61.7256 296.363 64.2535 296.131 68.0631C295.931 69.9166 295.093 71.4279 293.769 72.7031C291.658 74.3806 289.508 74.5827 286.909 74.5856C286.668 74.5864 286.428 74.5871 286.18 74.5879C285.672 74.5891 285.165 74.5896 284.657 74.5896C283.885 74.5901 283.113 74.5943 282.34 74.5986C281.845 74.5993 281.351 74.5998 280.856 74.6C280.627 74.6016 280.398 74.6033 280.162 74.605C278.522 74.5997 277.032 74.4311 275.511 73.7834C274.587 73.5596 274.11 73.9112 273.266 74.3164C272.059 74.5461 270.882 74.5838 269.659 74.5856C269.47 74.5864 269.281 74.5871 269.086 74.5879C268.688 74.5891 268.289 74.5896 267.891 74.5896C267.288 74.5901 266.685 74.5943 266.082 74.5986C261.123 74.6162 261.123 74.6162 259.298 73.3801C258.705 72.9855 258.256 72.7013 257.579 72.4727C256.904 72.7753 256.904 72.7753 256.158 73.2073C250.996 75.9855 244.223 75.9922 238.709 74.3164C237.271 73.8437 235.866 73.3003 234.587 72.4727C233.897 72.0346 233.369 71.7186 232.571 71.5508C231.599 71.9328 230.82 72.5202 229.987 73.1398C225.934 75.9218 219.539 75.7674 214.924 74.979C213.982 74.7722 213.097 74.4983 212.199 74.1526C210.369 73.3522 210.369 73.3522 208.447 73.3234C207.864 73.6194 207.864 73.6194 207.39 73.9932C206.256 74.7135 204.779 74.5812 203.476 74.5804C203.215 74.5815 203.215 74.5815 202.948 74.5827C202.378 74.5849 201.807 74.5853 201.236 74.5856C200.836 74.5863 200.436 74.5871 200.036 74.5879C199.199 74.5893 198.361 74.5897 197.524 74.5896C196.456 74.5896 195.388 74.5927 194.321 74.5967C193.495 74.5992 192.669 74.5997 191.843 74.5996C191.449 74.5999 191.056 74.6009 190.662 74.6027C184.604 74.6277 184.604 74.6277 182.443 72.6428C181.938 72.1348 181.446 71.6194 180.964 71.0898C180.853 71.1736 180.742 71.2574 180.628 71.3437C175.387 75.1115 168.554 75.464 162.356 74.6252C157.733 73.827 154.148 71.5211 150.955 68.0937C150.271 68.4014 149.837 68.7305 149.335 69.2893C145.64 73.1057 139.84 75.1597 134.646 75.3076C134.115 75.312 133.583 75.3129 133.051 75.3103C132.632 75.3086 132.632 75.3086 132.204 75.3069C126.834 75.2369 121.64 73.5326 117.535 69.9375C117.368 69.8011 117.201 69.6648 117.029 69.5243C114.883 67.7117 112.746 65.052 111.852 62.332C110.652 63.9961 110.652 63.9961 109.47 65.6729C108.342 67.291 107.19 68.8727 105.941 70.3984C105.848 70.5121 105.755 70.6258 105.659 70.7429C103.704 73.1318 101.68 75.448 99.4897 77.6195C99.0864 78.0217 99.0864 78.0217 98.6798 78.6089C97.4545 80.0393 95.8077 80.9082 93.9518 81.0774C91.0285 81.146 89.2667 80.5824 87.1272 78.5261C86.3855 77.7901 85.6834 77.031 85.017 76.225C84.5297 75.6514 84.0225 75.1011 83.5111 74.5498C82.1313 73.0619 80.8138 71.5446 79.5687 69.9375C79.4747 69.8165 79.3806 69.6956 79.2837 69.571C78.1006 68.0464 76.9587 66.5057 75.9312 64.8672C75.9227 65.0927 75.9142 65.3182 75.9055 65.5505C75.7592 68.508 75.344 70.6409 73.1463 72.7463C71.3499 74.3132 69.3924 74.5818 67.0744 74.5804C66.8982 74.5811 66.7221 74.5819 66.5406 74.5827C65.9611 74.5849 65.3816 74.5853 64.8021 74.5856C64.3966 74.5863 63.9911 74.5871 63.5857 74.5879C62.7364 74.5893 61.8872 74.5897 61.0379 74.5896C59.9545 74.5896 58.8712 74.5927 57.7878 74.5967C56.9503 74.5992 56.1127 74.5997 55.2752 74.5996C54.8761 74.5999 54.4769 74.6009 54.0778 74.6027C48.311 74.6261 48.311 74.6261 45.9219 72.7031C45.1401 71.8447 44.5135 70.9073 43.8758 69.9375C43.7618 70.0465 43.6478 70.1556 43.5303 70.2679C40.9029 72.5956 37.4886 74.0307 34.1 74.7773C33.9235 74.8175 33.747 74.8577 33.5651 74.8992C31.8307 75.2615 30.1411 75.3185 28.3738 75.3103C27.9363 75.3084 27.9363 75.3084 27.49 75.3064C21.7868 75.2324 16.558 73.3511 12.275 69.4766C11.9954 69.2257 11.9954 69.2257 11.7102 68.9697C7.87741 65.3195 5.24013 59.7714 4.95976 54.4193C4.83632 47.027 4.83632 47.027 5.90937 43.6641C5.99436 43.3973 6.07935 43.1305 6.16691 42.8556C7.14428 40.08 8.51376 37.5629 10.4562 35.3672C10.7292 35.0579 10.7292 35.0579 11.0077 34.7424C14.8277 30.6462 20.3245 27.9676 25.9178 27.733C31.9718 27.5934 38.2191 28.1228 43.0286 32.3126C43.5728 32.881 43.5728 32.881 44.1031 32.832C44.4003 32.4112 44.4003 32.4112 44.6999 31.8813C45.7343 30.2586 47.0954 29.3192 48.8773 28.6836C49.9417 28.459 50.9812 28.4177 52.0643 28.416C52.2419 28.4148 52.4195 28.4137 52.6026 28.4125C53.1873 28.4092 53.772 28.4076 54.3567 28.4063C54.6582 28.4053 54.6582 28.4053 54.9658 28.4043C56.0303 28.4009 57.0948 28.3988 58.1592 28.3978C59.2523 28.3965 60.3453 28.391 61.4383 28.3844C62.2844 28.3801 63.1305 28.3789 63.9766 28.3786C64.3792 28.3779 64.7818 28.376 65.1844 28.373C71.0774 28.3315 71.0774 28.3315 73.4305 30.5273C73.5805 30.6795 73.7306 30.8316 73.8852 30.9883C74.0237 30.8388 74.0237 30.8388 74.1649 30.6864C77.9203 26.6686 81.934 23.8221 87.2984 22.4609C87.4574 22.4202 87.6163 22.3795 87.7801 22.3376C94.4245 20.7983 101.828 22.4326 107.3 26.4937Z" fill="#CC312F"/>
<path d="M92.6126 29.3174C92.8348 29.3156 93.0569 29.3138 93.2858 29.312C97.6363 29.3237 101.787 31.0573 104.946 34.1005C106.849 36.1276 108.099 38.3294 109.123 40.8984C109.206 41.1008 109.288 41.3031 109.373 41.5115C109.851 42.9334 109.873 44.3654 109.891 45.8535C109.894 46.0532 109.897 46.2529 109.9 46.4586C109.854 52.8387 105.38 59.1469 101.621 63.9453C101.501 64.0998 101.381 64.2542 101.258 64.4134C99.778 66.3148 98.2451 68.1479 96.6036 69.9078C96.1391 70.4059 95.6879 70.9131 95.2431 71.4293C95.0743 71.623 95.0743 71.623 94.9022 71.8206C94.6885 72.0666 94.4766 72.3143 94.267 72.5638C93.9767 72.8949 93.9767 72.8949 93.4367 73.3945C92.5274 73.3945 92.5274 73.3945 92.0469 73.0056C91.8819 72.8298 91.7169 72.6539 91.5469 72.4727C91.367 72.2819 91.1871 72.0912 91.0017 71.8947C90.4282 71.2618 89.8648 70.6226 89.3135 69.9699C88.8242 69.4001 88.317 68.8491 87.81 68.2954C86.4956 66.8319 85.2968 65.2898 84.1156 63.7149C83.9568 63.5043 83.9568 63.5043 83.7947 63.2896C80.779 59.2771 78.221 54.9119 76.6133 50.1172C76.5301 49.8703 76.4468 49.6234 76.3611 49.3691C75.417 45.335 76.3207 40.9339 78.4321 37.4414C81.0861 33.4181 84.8178 30.6204 89.4972 29.4685C90.5303 29.286 91.5669 29.3091 92.6126 29.3174Z" fill="#FEFEFE"/>
<path d="M143.978 38.6514C145.323 39.9281 146.444 41.5628 147.317 43.2031C147.317 43.4313 147.317 43.6595 147.317 43.8945C144.916 44.8832 142.516 45.872 140.042 46.8906C139.36 45.9688 139.36 45.9688 139.035 45.5078C137.754 43.7101 136.489 42.8487 134.359 42.2813C132.399 42.0081 130.471 42.4423 128.845 43.592C127.022 45.1088 125.998 47.1066 125.492 49.4258C125.216 52.6052 125.483 55.5399 127.383 58.1908C128.823 59.8976 130.543 60.5615 132.721 60.7836C134.706 60.8518 136.687 60.4457 138.223 59.1055C139.01 58.0687 139.402 57.1351 139.815 55.8789C137.639 55.8789 135.463 55.8789 133.222 55.8789C133.222 53.8254 133.222 51.772 133.222 49.6563C138.473 49.6563 143.725 49.6563 149.136 49.6563C148.914 54.6023 148.732 58.4718 145.726 62.332C145.618 62.4785 145.511 62.625 145.401 62.7759C143.307 65.4801 140.022 66.7466 136.859 67.6328C136.647 67.6943 136.647 67.6943 136.431 67.7571C132.119 68.7087 127.233 67.6231 123.562 65.2777C121.557 63.8345 120.064 62.2197 118.899 60.0273C118.713 59.6864 118.713 59.6864 118.524 59.3386C116.451 55.2145 116.248 50.1511 117.598 45.7612C119.052 41.4809 121.775 38.4756 125.776 36.4619C131.634 33.8915 138.95 34.5221 143.978 38.6514Z" fill="#FEFDFD"/>
<path d="M38.6584 38.2265C40.2309 39.5767 41.5747 41.0926 42.5117 42.9727C42.5117 43.2769 42.5117 43.5811 42.5117 43.8945C41.5168 44.3223 40.5214 44.7489 39.5256 45.1746C39.1867 45.3196 38.848 45.465 38.5094 45.6106C38.0233 45.8196 37.5368 46.0275 37.0501 46.2352C36.8983 46.3008 36.7465 46.3663 36.5901 46.4338C35.5158 46.8906 35.5158 46.8906 35.0094 46.8906C34.8828 46.6149 34.7561 46.3392 34.6257 46.0552C33.6103 44.0251 32.4199 43.2301 30.3914 42.4541C28.0849 41.9785 26.312 42.3166 24.2807 43.4912C22.3177 44.8204 21.4123 46.9211 20.914 49.1953C20.8208 50.0336 20.8054 50.8586 20.8146 51.7017C20.8163 51.9236 20.818 52.1456 20.8198 52.3743C20.8756 54.8209 21.3829 57.1275 23.1875 58.875C25.3339 60.4863 27.3644 60.9256 30.0078 60.7188C31.3563 60.4622 32.6176 60.0504 33.6453 59.1055C34.2731 58.0696 34.7185 57.0585 35.0094 55.8789C32.9087 55.8789 30.808 55.8789 28.6437 55.8789C28.6437 53.8254 28.6437 51.772 28.6437 49.6563C33.8203 49.6563 38.997 49.6563 44.3304 49.6563C44.3304 54.9648 43.7618 59.5598 40.0678 63.542C36.503 66.9469 32.0833 68.0573 27.3214 67.9263C23.1141 67.7369 19.5426 66.3823 16.5945 63.2539C16.4316 63.0905 16.2686 62.9271 16.1007 62.7588C13.2674 59.7677 12.2286 55.5952 12.2466 51.5432C12.2457 51.347 12.2448 51.1508 12.2439 50.9486C12.2504 46.6348 13.6015 42.7101 16.5599 39.521C22.269 34.0801 32.4192 33.2378 38.6584 38.2265Z" fill="#FEFDFD"/>
<path d="M263.262 36.0586C280.457 36.0586 280.457 36.0586 283.269 38.5938C285.054 40.5096 285.81 42.7413 285.812 45.335C285.815 45.5022 285.818 45.6695 285.821 45.8418C285.827 48.1392 285.156 50.3429 283.635 52.0897C282.414 53.1977 280.9 53.8645 279.404 54.4961C279.542 54.6776 279.679 54.8591 279.821 55.0462C281.387 57.1099 282.953 59.1736 284.519 61.2373C284.613 61.3611 284.707 61.4849 284.804 61.6124C284.992 61.8599 285.179 62.1075 285.367 62.3553C285.865 63.0137 286.367 63.6696 286.872 64.3225C286.978 64.4595 287.083 64.5964 287.192 64.7375C287.396 65.0014 287.6 65.2646 287.805 65.5271C288.498 66.4286 288.498 66.4286 288.498 66.9414C287.147 67.0274 285.798 67.0898 284.446 67.1313C283.987 67.1486 283.528 67.1721 283.07 67.2022C279.394 67.4372 279.394 67.4372 278.312 66.6387C277.585 65.8442 277.122 64.9231 276.672 63.9484C276.332 63.242 275.909 62.6133 275.479 61.9593C275.176 61.4788 274.874 60.9981 274.573 60.5171C274.269 60.0326 273.964 59.5483 273.66 59.0641C273.529 58.8555 273.398 58.647 273.264 58.4322C272.668 57.4979 272.056 56.5742 271.447 55.6484C271.372 59.3751 271.297 63.1018 271.22 66.9414C268.594 66.9414 265.968 66.9414 263.262 66.9414C263.262 56.7501 263.262 46.5588 263.262 36.0586Z" fill="#FEFEFE"/>
<path d="M154.137 35.5977C156.763 35.5977 159.389 35.5977 162.095 35.5977C162.098 36.186 162.101 36.7744 162.105 37.3805C162.116 39.3307 162.131 41.2808 162.148 43.231C162.158 44.4126 162.167 45.5943 162.173 46.776C162.179 47.9177 162.188 49.0593 162.2 50.201C162.204 50.6352 162.206 51.0694 162.208 51.5037C162.153 55.5647 162.153 55.5647 163.913 59.1055C165.115 59.9401 165.977 60.1801 167.423 60.1426C167.593 60.14 167.764 60.1373 167.939 60.1346C169.544 60.0773 170.571 59.7477 171.728 58.5437C172.733 56.937 172.813 55.3064 172.826 53.4415C172.829 53.248 172.831 53.0545 172.833 52.8551C172.84 52.2192 172.846 51.5832 172.852 50.9472C172.856 50.5048 172.861 50.0624 172.866 49.62C172.878 48.4584 172.89 47.2967 172.901 46.1351C172.912 44.9486 172.925 43.7621 172.937 42.5756C172.962 40.2497 172.985 37.9237 173.007 35.5977C175.633 35.5977 178.259 35.5977 180.964 35.5977C180.98 38.1743 180.992 40.751 180.999 43.3277C181.003 44.5246 181.008 45.7214 181.015 46.9183C181.023 48.0764 181.027 49.2345 181.029 50.3926C181.03 50.8313 181.032 51.27 181.036 51.7087C181.054 53.8408 181.023 55.9234 180.666 58.0293C180.64 58.1829 180.614 58.3365 180.587 58.4948C180.038 61.3538 178.53 63.8422 176.176 65.4866C173.49 67.1371 170.633 67.4439 167.565 67.4312C167.352 67.432 167.139 67.4329 166.919 67.4339C163.325 67.4288 160.045 66.741 157.32 64.1758C154.179 60.4918 154.033 56.095 154.071 51.4649C154.072 51.0048 154.073 50.5447 154.074 50.0846C154.076 48.8854 154.083 47.6863 154.091 46.4872C154.098 45.2588 154.101 44.0304 154.104 42.8021C154.111 40.4006 154.123 37.9991 154.137 35.5977Z" fill="#FEFDFD"/>
<path d="M230.525 37.4414C230.387 38.3544 230.105 39.0517 229.679 39.8658C229.556 40.1013 229.434 40.3367 229.308 40.5793C229.116 40.944 229.116 40.944 228.919 41.3162C228.79 41.5638 228.661 41.8114 228.528 42.0665C228.21 42.6766 227.89 43.2859 227.57 43.8945C227.348 43.7807 227.126 43.667 226.897 43.5497C226.605 43.4006 226.313 43.2514 226.021 43.1023C225.802 42.9898 225.802 42.9898 225.578 42.875C224.455 42.3026 223.625 42.0122 222.369 41.9932C222.135 41.9872 221.901 41.9813 221.66 41.9752C220.888 42.0606 220.48 42.3124 219.84 42.7422C219.69 42.7422 219.54 42.7422 219.385 42.7422C219.184 43.3536 219.094 43.8061 219.058 44.4419C219.038 44.7012 219.038 44.7012 219.017 44.9658C219.241 45.8265 219.798 46.2244 220.522 46.6602C221.344 47.0125 222.186 47.2823 223.037 47.5532C226.173 48.6104 229.435 49.7563 231.065 52.9116C231.198 53.205 231.32 53.5033 231.434 53.8047C231.516 54.0115 231.597 54.2182 231.681 54.4313C231.934 55.3499 231.956 56.1697 231.946 57.1177C231.949 57.3654 231.949 57.3654 231.951 57.6182C231.942 60.3151 230.949 62.8565 229.133 64.8384C226.145 67.6293 222.337 68.0241 218.455 67.8813C218.312 67.8753 218.169 67.8694 218.021 67.8633C217.819 67.8561 217.618 67.849 217.41 67.8417C214.412 67.6182 211.899 66.1696 209.382 64.6367C209.52 63.7237 209.802 63.0264 210.228 62.2123C210.351 61.9768 210.473 61.7414 210.599 61.4988C210.727 61.2557 210.856 61.0125 210.988 60.762C211.117 60.5143 211.246 60.2667 211.379 60.0116C211.697 59.4015 212.017 58.7923 212.337 58.1836C213.194 58.1836 213.481 58.4491 214.185 58.9326C214.629 59.2219 215.074 59.51 215.52 59.7969C215.68 59.9 215.839 60.003 216.003 60.1093C217.153 60.7399 218.258 60.8119 219.541 60.834C219.706 60.8383 219.871 60.8426 220.041 60.847C221.206 60.833 221.866 60.5594 222.795 59.7969C223.328 59.1093 223.362 58.3469 223.333 57.4823C223.182 56.6632 222.76 56.3603 222.113 55.8789C220.941 55.2802 219.715 54.8142 218.478 54.3729C215.493 53.307 212.675 52.2824 211.115 49.2844C210.196 46.9394 210.096 43.9766 210.888 41.5754C212.022 38.9517 213.708 37.0329 216.292 35.8281C220.863 34.0496 226.292 35.2957 230.525 37.4414Z" fill="#FEFDFD"/>
<path d="M256.897 37.4414C256.612 38.3605 256.28 39.209 255.851 40.0684C255.739 40.2927 255.628 40.517 255.513 40.7481C255.34 41.0935 255.34 41.0935 255.163 41.4458C255.046 41.6814 254.929 41.917 254.808 42.1597C254.52 42.7384 254.231 43.3167 253.941 43.8945C253.491 43.6666 253.041 43.4381 252.593 43.2031C250.839 42.2891 249.346 41.8102 247.348 42.0508C246.567 42.3242 245.945 42.6759 245.486 43.3994C245.273 43.9738 245.269 44.3522 245.331 44.9605C245.345 45.1393 245.36 45.3182 245.375 45.5024C245.486 45.9925 245.486 45.9925 245.891 46.2217C246.072 46.2904 246.253 46.359 246.439 46.4297C246.697 46.531 246.954 46.6323 247.22 46.7367C247.523 46.8508 247.826 46.9645 248.13 47.0779C248.457 47.2018 248.784 47.3257 249.111 47.4497C249.704 47.6734 250.298 47.8932 250.893 48.1105C253.601 49.1191 255.982 50.3278 257.431 52.9837C258.649 55.6743 258.606 58.6594 257.637 61.4336C256.507 64.0797 254.626 65.8522 252.009 66.9504C251.821 67.0235 251.634 67.0966 251.441 67.1719C251.082 67.3145 251.082 67.3145 250.716 67.46C245.844 68.7771 240.791 67.5704 236.469 65.1967C235.981 64.8672 235.981 64.8672 235.527 64.1758C235.959 63.31 236.396 62.4464 236.834 61.583C237.018 61.2154 237.018 61.2154 237.205 60.8403C237.325 60.6041 237.445 60.3679 237.569 60.1246C237.733 59.7987 237.733 59.7987 237.901 59.4663C238.262 58.8635 238.653 58.428 239.164 57.9531C239.269 58.0396 239.374 58.126 239.482 58.2151C241.442 59.7743 243.315 60.7583 245.828 60.7908C245.998 60.7975 246.168 60.8042 246.343 60.811C247.546 60.825 248.208 60.5958 249.167 59.7969C249.698 59.1116 249.697 58.3707 249.749 57.5147C249.545 56.7386 249.08 56.3905 248.485 55.8789C247.813 55.4964 247.813 55.4964 247.064 55.2019C246.86 55.1159 246.86 55.1159 246.652 55.0281C245.718 54.642 244.77 54.311 243.814 53.9888C241.016 53.0403 238.649 51.6889 237.26 48.936C236.431 46.6242 236.49 43.4489 237.374 41.1721C238.691 38.5346 240.524 36.6834 243.256 35.5977C247.937 34.1395 252.588 35.5585 256.897 37.4414Z" fill="#FEFDFD"/>
<path d="M187.33 35.8281C193.107 35.8281 198.883 35.8281 204.835 35.8281C204.835 38.1098 204.835 40.3914 204.835 42.7422C201.684 42.7422 198.533 42.7422 195.287 42.7422C195.287 44.4914 195.287 46.2407 195.287 48.043C198.213 48.043 201.139 48.043 204.153 48.043C204.153 50.2486 204.153 52.4541 204.153 54.7266C201.227 54.7266 198.301 54.7266 195.287 54.7266C195.287 56.5519 195.287 58.3772 195.287 60.2578C198.438 60.2578 201.589 60.2578 204.835 60.2578C204.835 62.5395 204.835 64.8211 204.835 67.1719C199.058 67.1719 193.282 67.1719 187.33 67.1719C187.33 56.8284 187.33 46.485 187.33 35.8281Z" fill="#FEFCFC"/>
<path d="M50.9235 36.0586C56.7003 36.0586 62.4771 36.0586 68.4289 36.0586C68.4289 38.2642 68.4289 40.4698 68.4289 42.7422C65.2779 42.7422 62.127 42.7422 58.8805 42.7422C58.8805 44.4914 58.8805 46.2407 58.8805 48.043C61.8064 48.043 64.7323 48.043 67.7469 48.043C67.7469 50.2486 67.7469 52.4541 67.7469 54.7266C64.821 54.7266 61.8951 54.7266 58.8805 54.7266C58.8805 56.5519 58.8805 58.3772 58.8805 60.2578C62.0315 60.2578 65.1825 60.2578 68.4289 60.2578C68.4289 62.4634 68.4289 64.669 68.4289 66.9414C62.6521 66.9414 56.8753 66.9414 50.9235 66.9414C50.9235 56.7501 50.9235 46.5588 50.9235 36.0586Z" fill="#FEFEFE"/>
<path d="M94.632 37.6503C95.7746 38.3373 96.7009 39.2198 97.3015 40.4375C97.4576 42.1236 97.4663 43.6754 96.3922 45.0469C95.1363 46.2285 93.918 46.5436 92.2245 46.5233C90.8178 46.3062 89.875 45.4142 88.9893 44.3411C88.4143 43.1267 88.4798 41.7415 88.6625 40.4375C89.1453 39.1171 89.9438 38.3438 91.1633 37.6719C92.2975 37.2886 93.5043 37.1914 94.632 37.6503Z" fill="#CC3230"/>
<path d="M271.22 42.2812C275.527 42.2812 275.527 42.2812 276.676 43.4336C277.465 44.2735 277.654 44.9398 277.713 46.0696C277.668 47.1177 277.508 47.8339 276.825 48.6335C275.111 50.1414 273.553 49.8867 271.22 49.8867C271.22 47.3769 271.22 44.8671 271.22 42.2812Z" fill="#CC3230"/>
</g>
<defs>
<clipPath id="clip0_9_2">
<rect width="291" height="59" fill="white" transform="translate(5 22)"/>
</clipPath>
</defs>
</svg>
