<?xml version="1.0" encoding="UTF-8"?>
<svg version="1.1" xmlns="http://www.w3.org/2000/svg" width="1280" height="256">
<path d="M0 0 C13.81087921 10.49168435 25.97185276 23.47704463 33.02270508 39.50170898 C33.86188477 38.59291992 33.86188477 38.59291992 34.71801758 37.66577148 C53.49000159 18.0487464 78.87131301 5.89976593 106.22973633 5.20092773 C108.76482219 5.18163635 111.30007006 5.17812169 113.83520508 5.18920898 C114.82691208 5.19194321 114.82691208 5.19194321 115.83865356 5.19473267 C125.61817971 5.24012942 134.61165141 5.68067712 144.02270508 8.50170898 C145.22926758 8.83041992 146.43583008 9.15913086 147.67895508 9.49780273 C158.70544939 12.78980362 168.46907144 18.13261989 178.02270508 24.50170898 C178.76520508 23.20233398 178.76520508 23.20233398 179.52270508 21.87670898 C184.41921396 14.58366934 192.18523412 10.68577121 200.60327148 8.97827148 C204.69188028 8.40844681 208.66594418 8.33954175 212.78833008 8.33374023 C213.62176941 8.33041183 214.45520874 8.32708344 215.31390381 8.32365417 C217.07213798 8.31860934 218.83038165 8.31624509 220.58862305 8.31640625 C223.25040865 8.31422724 225.9117743 8.29606609 228.57348633 8.27709961 C250.50720988 8.20035514 250.50720988 8.20035514 258.39770508 13.62670898 C261.85242715 15.97862076 262.65927942 16.50170898 267.02270508 16.50170898 C269.45867921 15.14269184 271.70169644 13.58957871 273.99926758 12.00952148 C282.57571311 7.7323794 292.1520438 8.19392484 301.52270508 8.25170898 C302.77696289 8.24397461 304.0312207 8.23624023 305.32348633 8.22827148 C323.6034703 8.26655417 323.6034703 8.26655417 331.39770508 13.62670898 C334.85242715 15.97862076 335.65927942 16.50170898 340.02270508 16.50170898 C342.45867921 15.14269184 344.70169644 13.58957871 346.99926758 12.00952148 C356.0220891 7.50976811 366.33945162 8.20569933 376.17895508 8.23608398 C377.73254456 8.23473336 379.28613363 8.23278953 380.83972168 8.23028564 C384.08060773 8.22735307 387.32138281 8.23157146 390.56225586 8.2409668 C394.69084764 8.25236022 398.81917927 8.24579068 402.94776154 8.23382187 C406.15132565 8.22655256 409.35482933 8.22891433 412.55839539 8.23407745 C414.07964612 8.23539997 415.60090255 8.23381599 417.12214661 8.22911835 C438.43049276 8.1777382 438.43049276 8.1777382 446.39770508 13.56420898 C450.41950446 16.26358199 450.41950446 16.26358199 455.02270508 17.50170898 C456.91486443 16.65096395 456.91486443 16.65096395 458.70239258 15.26733398 C462.98888085 12.39643911 467.24770783 10.78863898 472.14770508 9.25170898 C472.91985352 8.99647461 473.69200195 8.74124023 474.48754883 8.47827148 C502.0923062 -0.45682886 532.82212625 6.74423493 558.02270508 19.37670898 C560.02696498 20.4101555 562.02869462 21.44862221 564.02270508 22.50170898 C564.48676758 22.07760742 564.95083008 21.65350586 565.42895508 21.21655273 C583.71083919 5.69741604 607.02163904 4.00200826 630.02270508 5.50170898 C640.88914445 6.69771768 651.17609999 9.50808839 661.27270508 13.64624023 C666.34892665 15.22534893 669.96303465 12.66011178 674.51098633 10.43920898 C681.80124279 7.71811793 689.82898401 8.34056938 697.48754883 8.33374023 C699.44670982 8.32874763 699.44670982 8.32874763 701.44544983 8.32365417 C704.20827052 8.31768503 706.97106005 8.3158117 709.73388672 8.31640625 C712.53538523 8.31648713 715.33671891 8.30960455 718.13818359 8.29589844 C747.62865436 8.15389852 775.42686632 8.70927783 798.02270508 30.50170898 C814.13678764 48.84892424 818.43298406 68.8327643 817.24584961 92.60522461 C816.41917377 103.33573029 813.0472439 112.48180562 807.60864258 121.73217773 C807.0852832 122.64612305 806.56192383 123.56006836 806.02270508 124.50170898 C805.53543945 125.3228418 805.04817383 126.14397461 804.54614258 126.98999023 C803.69821246 129.67040522 803.69821246 129.67040522 805.66333008 132.37670898 C806.51568573 133.43269044 807.38693539 134.47359467 808.27270508 135.50170898 C809.21032767 136.65655738 810.14782412 137.8115082 811.08520508 138.96655273 C811.81610352 139.84609619 811.81610352 139.84609619 812.56176758 140.7434082 C822.6378378 152.87038977 831.61742522 163.83898501 830.60083008 180.36889648 C829.71920404 188.41095589 826.03530708 194.96844576 820.21020508 200.50170898 C810.92563993 207.78023998 801.46717261 208.65711359 790.03442383 208.66967773 C788.97665237 208.67300613 787.91888092 208.67633453 786.82905579 208.67976379 C784.59583977 208.68481522 782.36261625 208.68717267 780.12939453 208.68701172 C776.73237516 208.68919474 773.33568255 208.70736018 769.9387207 208.72631836 C767.76228951 208.72925343 765.58585679 208.73123747 763.40942383 208.73217773 C762.40288254 208.73936325 761.39634125 208.74654877 760.35929871 208.75395203 C753.14182327 208.73084467 746.58839932 207.99930057 739.89770508 205.18920898 C735.83525096 204.21775256 733.7347723 205.74336135 730.02270508 207.50170898 C724.7137238 208.49854906 719.53816407 208.66205839 714.15942383 208.66967773 C713.32739944 208.67300613 712.49537506 208.67633453 711.63813782 208.67976379 C709.88588001 208.68480205 708.1336127 208.68717308 706.38134766 208.68701172 C703.72843272 208.68919399 701.07593705 208.70737125 698.4230957 208.72631836 C676.61067715 208.80270181 676.61067715 208.80270181 668.58520508 203.43920898 C665.97716188 201.72702653 663.99881502 200.49374563 661.02270508 199.50170898 C658.05513641 200.81468692 658.05513641 200.81468692 654.77270508 202.68920898 C632.06777204 214.74370435 602.27604314 214.77279751 578.02270508 207.50170898 C571.69479018 205.45068293 565.51534259 203.09301872 559.88989258 199.50170898 C556.85647744 197.60087443 554.53403436 196.22995033 551.02270508 195.50170898 C546.74480422 197.15919825 543.31884371 199.70792049 539.6550293 202.39624023 C521.83057456 214.46760294 493.69981611 213.79772669 473.39770508 210.37670898 C469.25811791 209.47950232 465.36479791 208.29089592 461.41333008 206.79077148 C453.36373888 203.31786187 453.36373888 203.31786187 444.90942383 203.19311523 C442.34633032 204.4772127 442.34633032 204.4772127 440.26098633 206.09936523 C435.27251927 209.22477479 428.77687762 208.65064714 423.04296875 208.64697266 C421.89510139 208.65201057 421.89510139 208.65201057 420.7240448 208.65715027 C418.21290429 208.66659112 415.70183095 208.66859993 413.19067383 208.66967773 C411.43101474 208.67289516 409.67135592 208.67625959 407.91169739 208.67976379 C404.22921123 208.68573796 400.54674847 208.68760547 396.86425781 208.68701172 C392.16725873 208.68691021 387.47041121 208.70055826 382.77344799 208.71778393 C379.14011457 208.72895358 375.50681722 208.7309294 371.8734684 208.73040199 C370.14288117 208.73157479 368.41229279 208.73595683 366.68172264 208.74373436 C340.03138186 208.85229405 340.03138186 208.85229405 330.52661133 200.23999023 C328.30838056 198.03560178 326.14370289 195.79945662 324.02270508 193.50170898 C323.53543945 193.86522461 323.04817383 194.22874023 322.54614258 194.60327148 C299.49089863 210.95153537 269.43614464 212.4811317 242.17114258 208.84155273 C221.83835669 205.37810022 206.07101983 195.37281006 192.02270508 180.50170898 C189.01404156 181.83672202 187.1061105 183.26440203 184.89770508 185.68920898 C168.64650771 202.24832378 143.13294783 211.16082427 120.28833008 211.80249023 C117.94986464 211.82177145 115.6112237 211.82530192 113.27270508 211.81420898 C111.42781494 211.80683716 111.42781494 211.80683716 109.5456543 211.79931641 C85.92424431 211.49559921 63.07757674 204.1008414 45.02270508 188.50170898 C44.28793945 187.9100293 43.55317383 187.31834961 42.79614258 186.70874023 C33.35865553 178.8441677 23.95673748 167.3038062 20.02270508 155.50170898 C14.74605303 162.72214385 14.74605303 162.72214385 9.54614258 169.99780273 C4.58351454 177.01878806 -0.4826076 183.88172592 -5.97729492 190.50170898 C-6.38560547 190.99493652 -6.79391602 191.48816406 -7.21459961 191.99633789 C-15.81673432 202.36162326 -24.7167035 212.41184136 -34.35229492 221.83374023 C-36.12626414 223.57892788 -36.12626414 223.57892788 -37.91479492 226.12670898 C-43.30468537 232.3332495 -50.54814207 236.10327055 -58.71166992 236.83764648 C-71.57029814 237.13509372 -79.31944308 234.68968485 -88.73046875 225.76733398 C-91.99293728 222.57385389 -95.08123939 219.28034615 -98.01245117 215.78295898 C-100.15582398 213.29443072 -102.38689054 210.90665136 -104.63647461 208.5144043 C-110.70576325 202.05822874 -116.50055313 195.47477487 -121.97729492 188.50170898 C-122.39108398 187.97689941 -122.80487305 187.45208984 -123.23120117 186.91137695 C-128.4349235 180.29604785 -133.45799656 173.6113369 -137.97729492 166.50170898 C-138.01467773 167.48010742 -138.05206055 168.45850586 -138.09057617 169.46655273 C-138.7341081 182.29933656 -140.56024687 191.55368247 -150.22729492 200.68920898 C-158.1287527 207.48783604 -166.73932004 208.65338912 -176.93530273 208.64697266 C-177.71015518 208.65033127 -178.48500763 208.65368988 -179.28334045 208.65715027 C-181.83238349 208.66661015 -184.38136045 208.66860102 -186.93041992 208.66967773 C-188.71392849 208.67289426 -190.4974368 208.67625863 -192.28094482 208.67976379 C-196.01648571 208.68574302 -199.7520035 208.68760498 -203.48754883 208.68701172 C-208.25295702 208.68691028 -213.0182156 208.70054886 -217.78358841 208.71778393 C-221.46753609 208.7289536 -225.1514482 208.73092939 -228.83541107 208.73040199 C-230.59111801 208.73157515 -232.34682606 208.73595927 -234.10251617 208.74373436 C-259.4683006 208.84553362 -259.4683006 208.84553362 -269.97729492 200.50170898 C-273.41602281 196.77695013 -276.17205743 192.70956522 -278.97729492 188.50170898 C-279.47874023 188.97479492 -279.98018555 189.44788086 -280.49682617 189.93530273 C-292.05379666 200.03534679 -307.07202607 206.26216294 -321.97729492 209.50170898 C-322.75371338 209.67613525 -323.53013184 209.85056152 -324.33007812 210.03027344 C-331.95893842 211.6024207 -339.39116757 211.84990759 -347.16479492 211.81420898 C-349.08908325 211.80574951 -349.08908325 211.80574951 -351.05224609 211.79711914 C-376.13860658 211.47617134 -399.13818382 203.3134323 -417.97729492 186.50170898 C-419.20706055 185.4130957 -419.20706055 185.4130957 -420.46166992 184.30249023 C-437.32065919 168.4644646 -448.92104543 144.39125118 -450.15429688 121.16870117 C-450.69724841 89.09346062 -450.69724841 89.09346062 -445.97729492 74.50170898 C-445.6034668 73.34413086 -445.22963867 72.18655273 -444.84448242 70.99389648 C-440.54538529 58.95073034 -434.52157484 48.02895916 -425.97729492 38.50170898 C-424.7765332 37.15979492 -424.7765332 37.15979492 -423.55151367 35.79077148 C-406.748943 18.01738562 -382.57033119 6.39506897 -357.96777344 5.37719727 C-331.33840951 4.77134302 -303.85887293 7.06831118 -282.70385742 25.24780273 C-280.30996952 27.7140884 -280.30996952 27.7140884 -277.97729492 27.50170898 C-276.67021831 25.67568356 -276.67021831 25.67568356 -275.35229492 23.37670898 C-270.80229898 16.33583935 -264.81541792 12.25956708 -256.97729492 9.50170898 C-252.2955562 8.52702998 -247.72337091 8.34790837 -242.95922852 8.34057617 C-242.17783508 8.33561127 -241.39644165 8.33064636 -240.59136963 8.32553101 C-238.0194814 8.31098951 -235.44765492 8.30411961 -232.87573242 8.29858398 C-231.54944761 8.29434292 -231.54944761 8.29434292 -230.19636917 8.29001617 C-225.51412917 8.27505332 -220.83191973 8.26580645 -216.1496582 8.26147461 C-211.34178587 8.25600467 -206.53419883 8.23199958 -201.72641563 8.20350266 C-198.00464088 8.18476419 -194.28293319 8.17966467 -190.56111526 8.17813873 C-188.79030427 8.17513521 -187.0194938 8.16718569 -185.24872971 8.15395355 C-159.32758655 7.97413285 -159.32758655 7.97413285 -148.97729492 17.50170898 C-148.31729492 18.16170898 -147.65729492 18.82170898 -146.97729492 19.50170898 C-146.36809204 18.85322998 -146.36809204 18.85322998 -145.74658203 18.19165039 C-129.22811044 0.75870139 -111.57351431 -11.59223848 -87.97729492 -17.49829102 C-87.27813965 -17.67489258 -86.57898438 -17.85149414 -85.85864258 -18.03344727 C-56.63236469 -24.71237631 -24.06851652 -17.62140248 0 0 Z " fill="#CC312F" transform="translate(449.977294921875,19.498291015625)"/>
<path d="M0 0 C0.97710937 -0.00773437 1.95421875 -0.01546875 2.9609375 -0.0234375 C22.09718305 0.02745677 40.35520692 7.54939936 54.25 20.75390625 C62.61894604 29.54955842 68.11979993 39.10298737 72.625 50.25 C72.98722656 51.12785156 73.34945312 52.00570312 73.72265625 52.91015625 C75.82483186 59.07979723 75.92360294 65.29303366 76 71.75 C76.01409912 72.61641113 76.02819824 73.48282227 76.04272461 74.37548828 C75.83683322 102.05875836 56.15692866 129.42989041 39.625 150.25 C39.0976123 150.92015137 38.57022461 151.59030273 38.02685547 152.28076172 C31.51765225 160.5312306 24.77515002 168.48480566 17.5546875 176.12109375 C15.51175363 178.28238916 13.52689478 180.48290088 11.5703125 182.72265625 C10.8280542 183.56328613 10.8280542 183.56328613 10.07080078 184.42089844 C9.13081003 185.48818953 8.19897739 186.56274096 7.27685547 187.64550781 C6 189.08203125 6 189.08203125 3.625 191.25 C-0.375 191.25 -0.375 191.25 -2.48828125 189.5625 C-3.21402344 188.799375 -3.93976563 188.03625 -4.6875 187.25 C-5.47898437 186.42242187 -6.27046875 185.59484375 -7.0859375 184.7421875 C-9.60823042 181.99607337 -12.08655012 179.22277595 -14.51171875 176.390625 C-16.66386777 173.91813514 -18.89480719 171.52728643 -21.125 169.125 C-26.9066622 162.77479311 -32.17945499 156.0837636 -37.375 149.25 C-38.07375244 148.33661865 -38.07375244 148.33661865 -38.78662109 147.40478516 C-52.05155713 129.99484318 -63.3031902 111.05427765 -70.375 90.25 C-70.74109375 89.17878906 -71.1071875 88.10757813 -71.484375 87.00390625 C-75.63719622 69.5001291 -71.6621005 50.40368433 -62.375 35.25 C-50.70073758 17.7928692 -34.28645096 5.65383357 -13.70361328 0.65576172 C-9.1594551 -0.13605951 -4.59953646 -0.03612201 0 0 Z " fill="#FEFEFE" transform="translate(385.375,31.75)"/>
<path d="M0 0 C5.91550366 5.53951826 10.84507305 12.632643 14.6875 19.75 C14.6875 20.74 14.6875 21.73 14.6875 22.75 C4.1275 27.04 -6.4325 31.33 -17.3125 35.75 C-20.3125 31.75 -20.3125 31.75 -21.7421875 29.75 C-27.37895654 21.94993041 -32.94317298 18.21228945 -42.3125 15.75 C-50.93331005 14.56496418 -59.4126525 16.44891819 -66.5625 21.4375 C-74.58288068 28.01873979 -79.08841291 36.68699364 -81.3125 46.75 C-82.52867329 60.54559879 -81.35201734 73.2788315 -72.99609375 84.78125 C-66.66306756 92.18692331 -59.09571248 95.06788925 -49.515625 96.03125 C-40.78228046 96.32729558 -32.0707899 94.5652727 -25.3125 88.75 C-21.85446883 84.25166976 -20.1294316 80.20079481 -18.3125 74.75 C-27.8825 74.75 -37.4525 74.75 -47.3125 74.75 C-47.3125 65.84 -47.3125 56.93 -47.3125 47.75 C-24.2125 47.75 -1.1125 47.75 22.6875 47.75 C21.71201367 69.21069929 20.90921776 86.0005145 7.6875 102.75 C7.21570313 103.38550781 6.74390625 104.02101563 6.2578125 104.67578125 C-2.95200569 116.40919369 -17.40180824 121.90476813 -31.3125 125.75 C-32.24485474 126.01695679 -32.24485474 126.01695679 -33.19604492 126.28930664 C-52.16405306 130.41811404 -73.65710947 125.70785866 -89.8046875 115.53125 C-98.62072093 109.26939448 -105.19027935 102.2626955 -110.3125 92.75 C-111.13041016 91.27080078 -111.13041016 91.27080078 -111.96484375 89.76171875 C-121.07937537 71.86692928 -121.97367318 49.89728428 -116.03564453 30.84960938 C-109.63903655 12.27741874 -97.66500509 -0.76267907 -80.0625 -9.5 C-54.29770094 -20.65281811 -22.11738333 -17.91679503 0 0 Z " fill="#FEFDFD" transform="translate(611.3125,72.25)"/>
<path d="M0 0 C6.9169695 5.85868821 12.82791332 12.43598954 16.94921875 20.59375 C16.94921875 21.91375 16.94921875 23.23375 16.94921875 24.59375 C12.5728709 26.44969207 8.1945964 28.30098236 3.81445312 30.14794922 C2.32400203 30.77720026 0.83408985 31.40772934 -0.65527344 32.03955078 C-2.79352384 32.94638534 -4.93365677 33.84863789 -7.07421875 34.75 C-7.74198334 35.03435913 -8.40974792 35.31871826 -9.0977478 35.61169434 C-13.82303784 37.59375 -13.82303784 37.59375 -16.05078125 37.59375 C-16.60765625 36.3975 -17.16453125 35.20125 -17.73828125 33.96875 C-22.20484342 25.16012913 -27.44081752 21.71071745 -36.36328125 18.34375 C-46.50896526 16.28022105 -54.30732644 17.74721606 -63.2421875 22.84375 C-71.87662994 28.61096772 -75.85921478 37.72594526 -78.05078125 47.59375 C-78.46094895 51.23112383 -78.52873336 54.81072303 -78.48828125 58.46875 C-78.48070801 59.43184082 -78.47313477 60.39493164 -78.46533203 61.38720703 C-78.21994862 72.00317393 -75.9885797 82.01137536 -68.05078125 89.59375 C-58.6093827 96.58506661 -49.67785255 98.49132676 -38.05078125 97.59375 C-32.11939429 96.4805993 -26.57131204 94.6937663 -22.05078125 90.59375 C-19.28931419 86.09886204 -17.33032718 81.7119337 -16.05078125 76.59375 C-25.29078125 76.59375 -34.53078125 76.59375 -44.05078125 76.59375 C-44.05078125 67.68375 -44.05078125 58.77375 -44.05078125 49.59375 C-21.28078125 49.59375 1.48921875 49.59375 24.94921875 49.59375 C24.94921875 72.62742685 22.4479028 92.56498578 6.19921875 109.84375 C-9.48083477 124.61744205 -28.9215043 129.43543001 -49.8671875 128.8671875 C-68.37344691 128.04529086 -84.08320084 122.16772805 -97.05078125 108.59375 C-97.7675 107.88476562 -98.48421875 107.17578125 -99.22265625 106.4453125 C-111.68561242 93.46697092 -116.25456386 75.36290202 -116.17578125 57.78125 C-116.17964844 56.92982422 -116.18351562 56.07839844 -116.1875 55.20117188 C-116.1589889 36.48363727 -110.2161238 19.45442614 -97.203125 5.6171875 C-72.09100706 -17.9909379 -27.4438553 -21.6458577 0 0 Z " fill="#FEFDFD" transform="translate(148.05078125,70.40625)"/>
<path d="M0 0 C75.63061224 0 75.63061224 0 88 11 C95.85476918 19.31282267 99.17771393 28.99601613 99.1875 40.25 C99.19974609 40.97574219 99.21199219 41.70148438 99.22460938 42.44921875 C99.25126214 52.41735302 96.30046621 61.97948734 89.609375 69.55859375 C84.24121298 74.36648643 77.58003269 77.25966697 71 80 C71.60585937 80.78761719 72.21171875 81.57523437 72.8359375 82.38671875 C79.72395833 91.34114583 86.61197917 100.29557292 93.5 109.25 C93.91330566 109.78713623 94.32661133 110.32427246 94.75244141 110.87768555 C95.5782673 111.95158243 96.40347195 113.02595737 97.22802734 114.10083008 C99.42113408 116.95794874 101.62719234 119.8038514 103.8515625 122.63671875 C104.315625 123.23097656 104.7796875 123.82523437 105.2578125 124.4375 C106.15233872 125.58249356 107.05063647 126.72455307 107.953125 127.86328125 C111 131.7750756 111 131.7750756 111 134 C105.05993973 134.37321554 99.12679059 134.64394749 93.17773438 134.82397461 C91.15927261 134.89903737 89.14161676 135.00114292 87.12597656 135.1315918 C70.9562455 136.1511965 70.9562455 136.1511965 66.1953125 132.68676758 C63.00091651 129.23934504 60.96365297 125.24244402 58.98162842 121.01358032 C57.48723949 117.94819215 55.62667572 115.22039336 53.734375 112.3828125 C52.4047475 110.29783241 51.07660151 108.21190673 49.75 106.125 C48.41230075 104.02290118 47.07377316 101.92132923 45.734375 99.8203125 C45.15913086 98.91555176 44.58388672 98.01079102 43.99121094 97.07861328 C41.36937884 93.02499598 38.67787613 89.01681419 36 85 C35.67 101.17 35.34 117.34 35 134 C23.45 134 11.9 134 0 134 C0 89.78 0 45.56 0 0 Z " fill="#FEFEFE" transform="translate(1136,61)"/>
<path d="M0 0 C11.55 0 23.1 0 35 0 C35.01458252 2.55282715 35.02916504 5.1056543 35.04418945 7.73583984 C35.09466669 16.19764693 35.16128465 24.65927253 35.23571491 33.12090111 C35.28032395 38.24806502 35.31960075 43.37515121 35.34643555 48.50244141 C35.37256319 53.45631517 35.41303193 58.40988828 35.46318626 63.36357498 C35.47979121 65.24762845 35.49134497 67.13173385 35.49761391 69.01585007 C35.25771278 86.63654933 35.25771278 86.63654933 43 102 C48.28613879 105.62136986 52.07960245 106.66287712 58.4375 106.5 C59.18668701 106.48864014 59.93587402 106.47728027 60.70776367 106.46557617 C67.76937438 106.21670544 72.28481612 104.78663608 77.375 99.5625 C81.79588152 92.59110991 82.14581322 85.51598444 82.20532227 77.42431641 C82.21522186 76.58463318 82.22512146 75.74494995 82.23532104 74.87982178 C82.26676194 72.12043013 82.29162422 69.3610213 82.31640625 66.6015625 C82.33699083 64.68199226 82.35798769 62.7624264 82.37937927 60.84286499 C82.43444461 55.80250608 82.48392213 50.76210732 82.53222656 45.72167969 C82.58255535 40.57353184 82.63818191 35.42544151 82.69335938 30.27734375 C82.8007508 20.18494326 82.90174778 10.09249361 83 0 C94.55 0 106.1 0 118 0 C118.06816535 11.18016601 118.12303877 22.36019076 118.15543652 33.54051876 C118.170997 38.7337163 118.19205636 43.92676254 118.22631836 49.11987305 C118.25925886 54.1449536 118.27692502 59.16988995 118.28463173 64.19507027 C118.29011371 66.09851916 118.30081558 68.00196146 118.31719017 69.90534782 C118.39350718 79.15650655 118.25997926 88.19291866 116.6887207 97.33032227 C116.57477305 97.99696616 116.46082541 98.66361006 116.3434248 99.35045528 C113.9287147 111.75554001 107.29481522 122.55279372 96.9375 129.6875 C85.12519317 136.84891218 72.55688548 138.18041842 59.0625 138.125 C58.12470703 138.12886719 57.18691406 138.13273438 56.22070312 138.13671875 C40.41306436 138.11474844 25.98648486 135.13030737 14 124 C0.18094282 108.01526968 -0.46083475 88.93744502 -0.29296875 68.84765625 C-0.28735946 66.85127586 -0.28309568 64.85489128 -0.28010559 62.85850525 C-0.26876166 57.65536693 -0.23938695 52.45248796 -0.20599365 47.24945068 C-0.17506485 41.91959133 -0.16155196 36.58968924 -0.14648438 31.25976562 C-0.11450514 20.83971265 -0.06182517 10.41991867 0 0 Z " fill="#FEFDFD" transform="translate(656,59)"/>
<path d="M0 0 C-0.60631917 3.96149465 -1.84797404 6.98723529 -3.72265625 10.51953125 C-4.26083984 11.54111328 -4.79902344 12.56269531 -5.35351562 13.61523438 C-6.19946289 15.19788086 -6.19946289 15.19788086 -7.0625 16.8125 C-7.63033203 17.88693359 -8.19816406 18.96136719 -8.78320312 20.06835938 C-10.18314418 22.71530675 -11.58890112 25.35898899 -13 28 C-13.97582031 27.50628906 -14.95164062 27.01257813 -15.95703125 26.50390625 C-17.24213405 25.85666469 -18.52729325 25.20953512 -19.8125 24.5625 C-20.77639648 24.07426758 -20.77639648 24.07426758 -21.75976562 23.57617188 C-26.70096892 21.09276918 -30.34899831 19.83268332 -35.875 19.75 C-36.90367187 19.72421875 -37.93234375 19.6984375 -38.9921875 19.671875 C-42.38891293 20.04242686 -44.18332134 21.13529984 -47 23 C-47.66 23 -48.32 23 -49 23 C-49.88434888 25.65304663 -50.28215314 27.61641632 -50.4375 30.375 C-50.52837891 31.50035156 -50.52837891 31.50035156 -50.62109375 32.6484375 C-49.63477058 36.38281829 -47.18606111 38.10935331 -44 40 C-40.38438814 41.52872193 -36.68045182 42.69936226 -32.9375 43.875 C-19.1407304 48.46200047 -4.79637155 53.43419976 2.375 67.125 C2.95952557 68.3978454 3.49786423 69.69245833 4 71 C4.35835937 71.8971875 4.71671875 72.794375 5.0859375 73.71875 C6.19632735 77.70476486 6.29391119 81.26198527 6.25 85.375 C6.26160156 86.45007813 6.26160156 86.45007813 6.2734375 87.546875 C6.23119308 99.24857931 1.86524514 110.27569806 -6.125 118.875 C-19.26565943 130.98458932 -36.01383763 132.69794373 -53.08984375 132.078125 C-53.72019531 132.05234375 -54.35054687 132.0265625 -55 132 C-55.886875 131.9690625 -56.77375 131.938125 -57.6875 131.90625 C-70.87546441 130.93654673 -81.92868908 124.65131388 -93 118 C-92.39368083 114.03850535 -91.15202596 111.01276471 -89.27734375 107.48046875 C-88.73916016 106.45888672 -88.20097656 105.43730469 -87.64648438 104.38476562 C-87.08251953 103.32966797 -86.51855469 102.27457031 -85.9375 101.1875 C-85.36966797 100.11306641 -84.80183594 99.03863281 -84.21679688 97.93164062 C-82.81685582 95.28469325 -81.41109888 92.64101101 -80 90 C-76.23364513 90 -74.96896641 91.15209685 -71.875 93.25 C-69.91989112 94.50503734 -67.96169541 95.75528294 -66 97 C-65.29875 97.44730469 -64.5975 97.89460938 -63.875 98.35546875 C-58.8174207 101.09169817 -53.95753897 101.40437234 -48.3125 101.5 C-47.58724121 101.51861084 -46.86198242 101.53722168 -46.11474609 101.55639648 C-40.99289196 101.49582806 -38.08609073 100.30867621 -34 97 C-31.65584576 94.01653096 -31.50752602 90.70866535 -31.6328125 86.95703125 C-32.29964925 83.40293328 -34.15722129 82.08857211 -37 80 C-42.15852919 77.40221694 -47.54755733 75.38037049 -52.98901367 73.46533203 C-66.12071313 68.84041547 -78.51523138 64.39464648 -85.37890625 51.38671875 C-89.41803593 41.21148961 -89.85767149 28.35624833 -86.375 17.9375 C-81.38898304 6.55334239 -73.97226734 -1.77230443 -62.60546875 -7 C-42.4996114 -14.71679083 -18.62005343 -9.31002671 0 0 Z " fill="#FEFDFD" transform="translate(992,67)"/>
<path d="M0 0 C-1.25422685 3.98792946 -2.71515581 7.66949404 -4.6015625 11.3984375 C-5.09140625 12.37167969 -5.58125 13.34492187 -6.0859375 14.34765625 C-6.84777344 15.84619141 -6.84777344 15.84619141 -7.625 17.375 C-8.140625 18.39722656 -8.65625 19.41945313 -9.1875 20.47265625 C-10.45471873 22.98362669 -11.72564556 25.49264561 -13 28 C-14.98265234 27.01099182 -16.9624765 26.01944538 -18.9296875 25 C-26.64502502 21.03388272 -33.21500804 18.95598646 -42 20 C-45.43666084 21.18632065 -48.17140484 22.71228161 -50.19140625 25.8515625 C-51.12946552 28.3439905 -51.14862646 29.98582866 -50.875 32.625 C-50.81054688 33.40101562 -50.74609375 34.17703125 -50.6796875 34.9765625 C-50.19022967 37.10310615 -50.19022967 37.10310615 -48.41015625 38.09765625 C-47.61480469 38.39542969 -46.81945313 38.69320312 -46 39 C-44.86691406 39.43957031 -43.73382812 39.87914062 -42.56640625 40.33203125 C-41.23240126 40.82722247 -39.89773057 41.32062299 -38.5625 41.8125 C-37.12365346 42.35014145 -35.68485199 42.88790354 -34.24609375 43.42578125 C-31.63886216 44.39622796 -29.02768787 45.35020165 -26.41015625 46.29296875 C-14.49944943 50.66919754 -4.02351577 55.91398887 2.34765625 67.4375 C7.70492741 79.11212677 7.51888885 92.06450361 3.25390625 104.1015625 C-1.71321836 115.58320255 -9.98731792 123.2740913 -21.5 128.0390625 C-22.325 128.35617188 -23.15 128.67328125 -24 129 C-25.5778125 129.61875 -25.5778125 129.61875 -27.1875 130.25 C-48.61947783 135.96519409 -70.84317454 130.72917338 -89.85546875 120.4296875 C-92 119 -92 119 -94 116 C-92.09579759 112.24354425 -90.17451236 108.49608568 -88.25 104.75 C-87.44175781 103.15478516 -87.44175781 103.15478516 -86.6171875 101.52734375 C-86.08867188 100.50253906 -85.56015625 99.47773438 -85.015625 98.421875 C-84.29294434 97.00793457 -84.29294434 97.00793457 -83.55566406 95.56542969 C-81.96969868 92.95003041 -80.24688746 91.06035341 -78 89 C-77.53851562 89.37511719 -77.07703125 89.75023437 -76.6015625 90.13671875 C-67.97857764 96.90218315 -59.73988496 101.17164548 -48.6875 101.3125 C-47.94048828 101.34150391 -47.19347656 101.37050781 -46.42382812 101.40039062 C-41.13209052 101.46078798 -38.21790275 100.46632561 -34 97 C-31.66378356 94.02663362 -31.67030731 90.81176054 -31.44140625 87.09765625 C-32.33812871 83.73024395 -34.38432017 82.21958098 -37 80 C-39.95838482 78.34027085 -39.95838482 78.34027085 -43.25 77.0625 C-44.1476709 76.68919556 -44.1476709 76.68919556 -45.06347656 76.30834961 C-49.17148322 74.63282614 -53.33958953 73.19701032 -57.54858398 71.79882812 C-69.85329968 67.68315522 -80.2647555 61.81967934 -86.375 49.875 C-90.0212473 39.84397366 -89.76355079 26.06618082 -85.875 16.1875 C-80.07954691 4.74310809 -72.01774757 -3.28890073 -60 -8 C-39.41275049 -14.32697318 -18.95428813 -8.16995178 0 0 Z " fill="#FEFDFD" transform="translate(1108,67)"/>
<path d="M0 0 C25.41 0 50.82 0 77 0 C77 9.9 77 19.8 77 30 C63.14 30 49.28 30 35 30 C35 37.59 35 45.18 35 53 C47.87 53 60.74 53 74 53 C74 62.57 74 72.14 74 82 C61.13 82 48.26 82 35 82 C35 89.92 35 97.84 35 106 C48.86 106 62.72 106 77 106 C77 115.9 77 125.8 77 136 C51.59 136 26.18 136 0 136 C0 91.12 0 46.24 0 0 Z " fill="#FEFCFC" transform="translate(802,60)"/>
<path d="M0 0 C25.41 0 50.82 0 77 0 C77 9.57 77 19.14 77 29 C63.14 29 49.28 29 35 29 C35 36.59 35 44.18 35 52 C47.87 52 60.74 52 74 52 C74 61.57 74 71.14 74 81 C61.13 81 48.26 81 35 81 C35 88.92 35 96.84 35 105 C48.86 105 62.72 105 77 105 C77 114.57 77 124.14 77 134 C51.59 134 26.18 134 0 134 C0 89.78 0 45.56 0 0 Z " fill="#FEFEFE" transform="translate(202,61)"/>
<path d="M0 0 C5.02576395 2.98106151 9.10039959 6.81017419 11.7421875 12.09375 C12.42874241 19.40949909 12.46687878 26.14311842 7.7421875 32.09375 C2.21797225 37.2206319 -3.14058009 38.58802675 -10.58984375 38.5 C-16.77733714 37.5578341 -20.92432665 33.68742821 -24.8203125 29.03125 C-27.34941342 23.76228975 -27.0611389 17.75196203 -26.2578125 12.09375 C-24.13412468 6.36431137 -20.621869 3.0089981 -15.2578125 0.09375 C-10.26871832 -1.56928139 -4.96030959 -1.99098932 0 0 Z " fill="#CC3230" transform="translate(394.2578125,67.90625)"/>
<path d="M0 0 C18.94680851 0 18.94680851 0 24 5 C27.47094678 8.64449411 28.30095472 11.53520261 28.5625 16.4375 C28.36477653 20.98513971 27.65864055 24.09307091 24.65625 27.5625 C17.11785524 34.10525772 10.2626744 33 0 33 C0 22.11 0 11.22 0 0 Z " fill="#CC3230" transform="translate(1171,88)"/>
</svg>
