<svg width="188" height="40" viewBox="0 0 188 40" fill="none" xmlns="http://www.w3.org/2000/svg">
<mask id="path-1-outside-1_1_2" maskUnits="userSpaceOnUse" x="13" y="9.32199" width="162" height="21" fill="black">
<rect fill="white" x="13" y="9.32199" width="162" height="21"/>
<path d="M23.0273 18.9664H30.647V19.9174C30.647 20.9892 30.4659 21.9893 30.1035 22.9177C29.7488 23.8461 29.2393 24.6613 28.5751 25.3633C27.9109 26.0652 27.1183 26.6125 26.1975 27.005C25.2766 27.3975 24.2576 27.5937 23.1405 27.5937C21.9857 27.5937 20.9365 27.3975 19.993 27.005C19.0571 26.6049 18.2494 26.0502 17.5701 25.3406C16.8908 24.6311 16.37 23.8084 16.0077 22.8724C15.6454 21.9289 15.4642 20.9175 15.4642 19.8381C15.4642 18.7663 15.6454 17.7624 16.0077 16.8265C16.37 15.883 16.8908 15.0603 17.5701 14.3583C18.2494 13.6488 19.0571 13.0978 19.993 12.7053C20.9365 12.3052 21.9857 12.1052 23.1405 12.1052C24.084 12.1052 24.9143 12.2071 25.6314 12.4109C26.356 12.6147 26.9787 12.8864 27.4995 13.2261C28.0203 13.5658 28.4619 13.9394 28.8242 14.347C29.1865 14.747 29.4884 15.1395 29.7299 15.5245L26.5145 17.0416C26.205 16.5661 25.7823 16.1509 25.2464 15.7962C24.7181 15.4414 24.0161 15.2641 23.1405 15.2641C22.5291 15.2641 21.9668 15.3848 21.4535 15.6264C20.9478 15.8679 20.51 16.2 20.1402 16.6227C19.7703 17.0378 19.4835 17.5247 19.2797 18.0832C19.0835 18.6342 18.9853 19.2192 18.9853 19.8381C18.9853 20.4646 19.0835 21.0534 19.2797 21.6044C19.4835 22.1554 19.7703 22.6422 20.1402 23.0649C20.51 23.4876 20.9478 23.8197 21.4535 24.0613C21.9668 24.2952 22.5291 24.4122 23.1405 24.4122C23.6764 24.4122 24.1633 24.3443 24.6011 24.2084C25.0388 24.0726 25.4162 23.8763 25.7333 23.6197C26.0578 23.3631 26.3107 23.0611 26.4918 22.7139C26.6805 22.3592 26.7938 21.9705 26.8315 21.5478H23.0273V18.9664ZM35.3423 23.4046C35.3649 23.7367 35.4706 24.0311 35.6593 24.2877C35.848 24.5443 36.1084 24.7481 36.4405 24.8991C36.7802 25.0425 37.1802 25.1142 37.6406 25.1142C38.0784 25.1142 38.4709 25.0689 38.8181 24.9783C39.1729 24.8878 39.4786 24.7745 39.7352 24.6387C39.9994 24.5028 40.2032 24.3632 40.3466 24.2198L41.6826 26.3483C41.4939 26.5521 41.2259 26.7521 40.8787 26.9484C40.5391 27.1371 40.09 27.2918 39.5314 27.4126C38.9729 27.5333 38.2671 27.5937 37.4142 27.5937C36.3877 27.5937 35.4744 27.4012 34.6743 27.0163C33.8742 26.6313 33.2439 26.0652 32.7835 25.318C32.3231 24.5707 32.0929 23.6574 32.0929 22.5781C32.0929 21.6723 32.2891 20.8571 32.6816 20.1325C33.0816 19.4004 33.6591 18.8229 34.4139 18.4003C35.1687 17.97 36.0782 17.7549 37.1425 17.7549C38.1539 17.7549 39.0295 17.9398 39.7692 18.3097C40.5164 18.6795 41.0901 19.2305 41.4901 19.9627C41.8977 20.6873 42.1015 21.5931 42.1015 22.68C42.1015 22.7404 42.0977 22.8611 42.0902 23.0423C42.0902 23.2234 42.0826 23.3442 42.0675 23.4046H35.3423ZM38.8634 21.6044C38.8559 21.3628 38.7917 21.1251 38.6709 20.8911C38.5502 20.6496 38.369 20.4533 38.1275 20.3024C37.886 20.1438 37.5765 20.0646 37.1991 20.0646C36.8217 20.0646 36.5009 20.1401 36.2367 20.291C35.9801 20.4344 35.7838 20.6231 35.648 20.8571C35.5121 21.0911 35.4366 21.3402 35.4215 21.6044H38.8634ZM48.6127 27.5937C47.5937 27.5937 46.688 27.3861 45.8954 26.971C45.1104 26.5483 44.4915 25.9709 44.0386 25.2387C43.5933 24.499 43.3706 23.6537 43.3706 22.7026C43.3706 21.7516 43.5933 20.9062 44.0386 20.1665C44.4915 19.4192 45.1104 18.8305 45.8954 18.4003C46.688 17.97 47.5937 17.7549 48.6127 17.7549C49.6317 17.7549 50.5299 17.97 51.3074 18.4003C52.0848 18.8305 52.6924 19.4192 53.1302 20.1665C53.568 20.9062 53.7869 21.7516 53.7869 22.7026C53.7869 23.6537 53.568 24.499 53.1302 25.2387C52.6924 25.9709 52.0848 26.5483 51.3074 26.971C50.5299 27.3861 49.6317 27.5937 48.6127 27.5937ZM48.6127 24.7632C49.0052 24.7632 49.3449 24.6764 49.6317 24.5028C49.9185 24.3292 50.1412 24.0839 50.2997 23.7669C50.4582 23.4499 50.5375 23.0913 50.5375 22.6913C50.5375 22.2837 50.4582 21.9214 50.2997 21.6044C50.1412 21.2874 49.9185 21.0383 49.6317 20.8571C49.3449 20.676 49.0052 20.5854 48.6127 20.5854C48.2202 20.5854 47.8768 20.676 47.5824 20.8571C47.2956 21.0383 47.0692 21.2874 46.9031 21.6044C46.7446 21.9214 46.6653 22.2837 46.6653 22.6913C46.6653 23.0913 46.7446 23.4499 46.9031 23.7669C47.0692 24.0839 47.2956 24.3292 47.5824 24.5028C47.8768 24.6764 48.2202 24.7632 48.6127 24.7632ZM60.4125 12.3769H63.7752L69.6739 27.322H66.0622L64.9753 24.3217H59.2237L58.1255 27.322H54.5025L60.4125 12.3769ZM60.3559 21.3553H63.8544L62.1222 16.4529H62.0882L60.3559 21.3553ZM75.0469 17.7549C75.6583 17.7549 76.2169 17.8077 76.7226 17.9134C77.2283 18.0115 77.651 18.1248 77.9907 18.2531C78.3379 18.3814 78.5605 18.4871 78.6587 18.5701L77.5378 20.5967C77.3944 20.4911 77.1264 20.3552 76.7339 20.1891C76.349 20.0231 75.9187 19.94 75.4432 19.94C75.0809 19.94 74.7752 19.9967 74.5261 20.1099C74.277 20.2155 74.1525 20.3854 74.1525 20.6194C74.1525 20.8534 74.2884 21.0421 74.5601 21.1855C74.8394 21.3213 75.2394 21.4421 75.7602 21.5478C76.2131 21.6383 76.6735 21.7818 77.1415 21.978C77.6095 22.1743 77.9982 22.4649 78.3077 22.8498C78.6247 23.2272 78.7832 23.7329 78.7832 24.3669C78.7832 25.0161 78.6436 25.552 78.3643 25.9747C78.085 26.3974 77.7152 26.7257 77.2547 26.9597C76.7943 27.1937 76.2961 27.356 75.7602 27.4465C75.2243 27.5447 74.7035 27.5937 74.1978 27.5937C73.4883 27.5937 72.8693 27.5296 72.341 27.4012C71.8202 27.2729 71.3975 27.1257 71.0729 26.9597C70.7484 26.7936 70.5219 26.6615 70.3936 26.5634L71.5032 24.299C71.6994 24.4651 72.0202 24.6538 72.4655 24.8651C72.9109 25.0689 73.3826 25.1708 73.8808 25.1708C74.3638 25.1708 74.7375 25.0991 75.0017 24.9557C75.2658 24.8123 75.3979 24.6236 75.3979 24.3896C75.3979 24.2009 75.3338 24.0499 75.2054 23.9367C75.0771 23.8235 74.896 23.7254 74.662 23.6423C74.428 23.5593 74.145 23.4838 73.8128 23.4159C73.5109 23.3555 73.1901 23.2612 72.8505 23.1329C72.5108 23.0045 72.19 22.8309 71.8881 22.612C71.5862 22.3856 71.3409 22.1025 71.1522 21.7629C70.9635 21.4232 70.8691 21.0119 70.8691 20.5288C70.8691 19.9099 71.0691 19.3966 71.4692 18.989C71.8692 18.5814 72.3863 18.2757 73.0203 18.0719C73.6543 17.8606 74.3299 17.7549 75.0469 17.7549ZM84.7768 17.7549C85.3882 17.7549 85.9467 17.8077 86.4524 17.9134C86.9582 18.0115 87.3808 18.1248 87.7205 18.2531C88.0677 18.3814 88.2904 18.4871 88.3885 18.5701L87.2676 20.5967C87.1242 20.4911 86.8563 20.3552 86.4638 20.1891C86.0788 20.0231 85.6486 19.94 85.1731 19.94C84.8108 19.94 84.5051 19.9967 84.256 20.1099C84.0069 20.2155 83.8823 20.3854 83.8823 20.6194C83.8823 20.8534 84.0182 21.0421 84.2899 21.1855C84.5692 21.3213 84.9693 21.4421 85.4901 21.5478C85.943 21.6383 86.4034 21.7818 86.8714 21.978C87.3393 22.1743 87.7281 22.4649 88.0375 22.8498C88.3545 23.2272 88.513 23.7329 88.513 24.3669C88.513 25.0161 88.3734 25.552 88.0941 25.9747C87.8149 26.3974 87.445 26.7257 86.9846 26.9597C86.5241 27.1937 86.026 27.356 85.4901 27.4465C84.9542 27.5447 84.4334 27.5937 83.9276 27.5937C83.2181 27.5937 82.5992 27.5296 82.0708 27.4012C81.55 27.2729 81.1273 27.1257 80.8028 26.9597C80.4782 26.7936 80.2518 26.6615 80.1234 26.5634L81.233 24.299C81.4292 24.4651 81.75 24.6538 82.1954 24.8651C82.6407 25.0689 83.1125 25.1708 83.6106 25.1708C84.0937 25.1708 84.4673 25.0991 84.7315 24.9557C84.9957 24.8123 85.1278 24.6236 85.1278 24.3896C85.1278 24.2009 85.0636 24.0499 84.9353 23.9367C84.807 23.8235 84.6258 23.7254 84.3918 23.6423C84.1578 23.5593 83.8748 23.4838 83.5427 23.4159C83.2408 23.3555 82.92 23.2612 82.5803 23.1329C82.2407 23.0045 81.9199 22.8309 81.6179 22.612C81.316 22.3856 81.0707 22.1025 80.882 21.7629C80.6933 21.4232 80.599 21.0119 80.599 20.5288C80.599 19.9099 80.799 19.3966 81.199 18.989C81.5991 18.5814 82.1161 18.2757 82.7501 18.0719C83.3842 17.8606 84.0597 17.7549 84.7768 17.7549ZM90.4534 27.322V18.0266H93.8952V27.322H90.4534ZM92.2196 16.1132C91.6761 16.1132 91.2157 15.9245 90.8383 15.5471C90.4609 15.1622 90.2722 14.7055 90.2722 14.1771C90.2722 13.6488 90.4609 13.1921 90.8383 12.8072C91.2232 12.4147 91.6837 12.2184 92.2196 12.2184C92.5743 12.2184 92.8989 12.309 93.1933 12.4902C93.4876 12.6638 93.7254 12.8978 93.9066 13.1921C94.0877 13.4865 94.1783 13.8148 94.1783 14.1771C94.1783 14.7055 93.9858 15.1622 93.6009 15.5471C93.2159 15.9245 92.7555 16.1132 92.2196 16.1132ZM100.433 17.7549C101.044 17.7549 101.603 17.8077 102.109 17.9134C102.614 18.0115 103.037 18.1248 103.377 18.2531C103.724 18.3814 103.947 18.4871 104.045 18.5701L102.924 20.5967C102.78 20.4911 102.512 20.3552 102.12 20.1891C101.735 20.0231 101.305 19.94 100.829 19.94C100.467 19.94 100.161 19.9967 99.9122 20.1099C99.6631 20.2155 99.5386 20.3854 99.5386 20.6194C99.5386 20.8534 99.6744 21.0421 99.9461 21.1855C100.225 21.3213 100.625 21.4421 101.146 21.5478C101.599 21.6383 102.06 21.7818 102.528 21.978C102.996 22.1743 103.384 22.4649 103.694 22.8498C104.011 23.2272 104.169 23.7329 104.169 24.3669C104.169 25.0161 104.03 25.552 103.75 25.9747C103.471 26.3974 103.101 26.7257 102.641 26.9597C102.18 27.1937 101.682 27.356 101.146 27.4465C100.61 27.5447 100.09 27.5937 99.5838 27.5937C98.8743 27.5937 98.2554 27.5296 97.727 27.4012C97.2062 27.2729 96.7835 27.1257 96.459 26.9597C96.1344 26.7936 95.908 26.6615 95.7796 26.5634L96.8892 24.299C97.0855 24.4651 97.4062 24.6538 97.8516 24.8651C98.2969 25.0689 98.7687 25.1708 99.2668 25.1708C99.7499 25.1708 100.124 25.0991 100.388 24.9557C100.652 24.8123 100.784 24.6236 100.784 24.3896C100.784 24.2009 100.72 24.0499 100.591 23.9367C100.463 23.8235 100.282 23.7254 100.048 23.6423C99.8141 23.5593 99.531 23.4838 99.1989 23.4159C98.897 23.3555 98.5762 23.2612 98.2365 23.1329C97.8969 23.0045 97.5761 22.8309 97.2742 22.612C96.9722 22.3856 96.7269 22.1025 96.5382 21.7629C96.3495 21.4232 96.2552 21.0119 96.2552 20.5288C96.2552 19.9099 96.4552 19.3966 96.8552 18.989C97.2553 18.5814 97.7723 18.2757 98.4064 18.0719C99.0404 17.8606 99.7159 17.7549 100.433 17.7549ZM105.049 18.0266H106.634V14.2111H110.042V18.0266H112.125V20.8571H110.042V23.4499C110.042 23.8348 110.099 24.1481 110.212 24.3896C110.325 24.6236 110.533 24.7406 110.835 24.7406C111.038 24.7406 111.212 24.6953 111.355 24.6047C111.499 24.5141 111.586 24.4538 111.616 24.4236L112.793 26.8691C112.74 26.9144 112.574 26.9974 112.295 27.1182C112.023 27.239 111.676 27.3484 111.253 27.4465C110.831 27.5447 110.359 27.5937 109.838 27.5937C108.91 27.5937 108.144 27.3333 107.54 26.8125C106.936 26.2841 106.634 25.4727 106.634 24.3783V20.8571H105.049V18.0266ZM121.28 27.322V25.8162C121.212 25.9671 121.038 26.186 120.759 26.4728C120.487 26.7597 120.125 27.0201 119.672 27.2541C119.219 27.4805 118.691 27.5937 118.087 27.5937C117.181 27.5937 116.389 27.3748 115.709 26.937C115.03 26.4917 114.502 25.8992 114.124 25.1595C113.747 24.4122 113.558 23.5857 113.558 22.68C113.558 21.7742 113.747 20.9515 114.124 20.2118C114.502 19.4645 115.03 18.8682 115.709 18.4229C116.389 17.9776 117.181 17.7549 118.087 17.7549C118.668 17.7549 119.178 17.8493 119.615 18.0379C120.053 18.2191 120.408 18.438 120.68 18.6946C120.951 18.9437 121.14 19.1739 121.246 19.3853V18.0266H124.665V27.322H121.28ZM116.932 22.68C116.932 23.1027 117.03 23.4838 117.227 23.8235C117.423 24.1556 117.683 24.416 118.008 24.6047C118.34 24.7934 118.706 24.8878 119.106 24.8878C119.521 24.8878 119.887 24.7934 120.204 24.6047C120.521 24.416 120.77 24.1556 120.951 23.8235C121.14 23.4838 121.235 23.1027 121.235 22.68C121.235 22.2573 121.14 21.8799 120.951 21.5478C120.77 21.2081 120.521 20.9439 120.204 20.7552C119.887 20.559 119.521 20.4609 119.106 20.4609C118.706 20.4609 118.34 20.559 118.008 20.7552C117.683 20.9439 117.423 21.2081 117.227 21.5478C117.03 21.8799 116.932 22.2573 116.932 22.68ZM133.246 17.7549C133.895 17.7549 134.529 17.887 135.148 18.1512C135.767 18.4154 136.277 18.8343 136.677 19.4079C137.077 19.974 137.277 20.7213 137.277 21.6497V27.322H133.824V22.2158C133.824 21.5515 133.665 21.0534 133.348 20.7213C133.031 20.3816 132.616 20.2118 132.103 20.2118C131.763 20.2118 131.442 20.3024 131.14 20.4835C130.846 20.6571 130.604 20.9062 130.416 21.2308C130.234 21.5478 130.144 21.9138 130.144 22.329V27.322H126.702V18.0266H130.144V19.3966C130.234 19.1475 130.423 18.8984 130.71 18.6493C131.004 18.3927 131.37 18.1814 131.808 18.0153C132.254 17.8417 132.733 17.7549 133.246 17.7549ZM138.484 18.0266H140.069V14.2111H143.477V18.0266H145.561V20.8571H143.477V23.4499C143.477 23.8348 143.534 24.1481 143.647 24.3896C143.76 24.6236 143.968 24.7406 144.27 24.7406C144.474 24.7406 144.647 24.6953 144.791 24.6047C144.934 24.5141 145.021 24.4538 145.051 24.4236L146.229 26.8691C146.176 26.9144 146.01 26.9974 145.73 27.1182C145.459 27.239 145.111 27.3484 144.689 27.4465C144.266 27.5447 143.794 27.5937 143.273 27.5937C142.345 27.5937 141.579 27.3333 140.975 26.8125C140.371 26.2841 140.069 25.4727 140.069 24.3783V20.8571H138.484V18.0266ZM158.33 12.3769H161.693L167.592 27.322H163.98L162.893 24.3217H157.141L156.043 27.322H152.42L158.33 12.3769ZM158.274 21.3553H161.772L160.04 16.4529H160.006L158.274 21.3553ZM168.911 12.3769H172.297V27.322H168.911V12.3769Z"/>
</mask>
<path d="M23.0273 18.9664H30.647V19.9174C30.647 20.9892 30.4659 21.9893 30.1035 22.9177C29.7488 23.8461 29.2393 24.6613 28.5751 25.3633C27.9109 26.0652 27.1183 26.6125 26.1975 27.005C25.2766 27.3975 24.2576 27.5937 23.1405 27.5937C21.9857 27.5937 20.9365 27.3975 19.993 27.005C19.0571 26.6049 18.2494 26.0502 17.5701 25.3406C16.8908 24.6311 16.37 23.8084 16.0077 22.8724C15.6454 21.9289 15.4642 20.9175 15.4642 19.8381C15.4642 18.7663 15.6454 17.7624 16.0077 16.8265C16.37 15.883 16.8908 15.0603 17.5701 14.3583C18.2494 13.6488 19.0571 13.0978 19.993 12.7053C20.9365 12.3052 21.9857 12.1052 23.1405 12.1052C24.084 12.1052 24.9143 12.2071 25.6314 12.4109C26.356 12.6147 26.9787 12.8864 27.4995 13.2261C28.0203 13.5658 28.4619 13.9394 28.8242 14.347C29.1865 14.747 29.4884 15.1395 29.7299 15.5245L26.5145 17.0416C26.205 16.5661 25.7823 16.1509 25.2464 15.7962C24.7181 15.4414 24.0161 15.2641 23.1405 15.2641C22.5291 15.2641 21.9668 15.3848 21.4535 15.6264C20.9478 15.8679 20.51 16.2 20.1402 16.6227C19.7703 17.0378 19.4835 17.5247 19.2797 18.0832C19.0835 18.6342 18.9853 19.2192 18.9853 19.8381C18.9853 20.4646 19.0835 21.0534 19.2797 21.6044C19.4835 22.1554 19.7703 22.6422 20.1402 23.0649C20.51 23.4876 20.9478 23.8197 21.4535 24.0613C21.9668 24.2952 22.5291 24.4122 23.1405 24.4122C23.6764 24.4122 24.1633 24.3443 24.6011 24.2084C25.0388 24.0726 25.4162 23.8763 25.7333 23.6197C26.0578 23.3631 26.3107 23.0611 26.4918 22.7139C26.6805 22.3592 26.7938 21.9705 26.8315 21.5478H23.0273V18.9664ZM35.3423 23.4046C35.3649 23.7367 35.4706 24.0311 35.6593 24.2877C35.848 24.5443 36.1084 24.7481 36.4405 24.8991C36.7802 25.0425 37.1802 25.1142 37.6406 25.1142C38.0784 25.1142 38.4709 25.0689 38.8181 24.9783C39.1729 24.8878 39.4786 24.7745 39.7352 24.6387C39.9994 24.5028 40.2032 24.3632 40.3466 24.2198L41.6826 26.3483C41.4939 26.5521 41.2259 26.7521 40.8787 26.9484C40.5391 27.1371 40.09 27.2918 39.5314 27.4126C38.9729 27.5333 38.2671 27.5937 37.4142 27.5937C36.3877 27.5937 35.4744 27.4012 34.6743 27.0163C33.8742 26.6313 33.2439 26.0652 32.7835 25.318C32.3231 24.5707 32.0929 23.6574 32.0929 22.5781C32.0929 21.6723 32.2891 20.8571 32.6816 20.1325C33.0816 19.4004 33.6591 18.8229 34.4139 18.4003C35.1687 17.97 36.0782 17.7549 37.1425 17.7549C38.1539 17.7549 39.0295 17.9398 39.7692 18.3097C40.5164 18.6795 41.0901 19.2305 41.4901 19.9627C41.8977 20.6873 42.1015 21.5931 42.1015 22.68C42.1015 22.7404 42.0977 22.8611 42.0902 23.0423C42.0902 23.2234 42.0826 23.3442 42.0675 23.4046H35.3423ZM38.8634 21.6044C38.8559 21.3628 38.7917 21.1251 38.6709 20.8911C38.5502 20.6496 38.369 20.4533 38.1275 20.3024C37.886 20.1438 37.5765 20.0646 37.1991 20.0646C36.8217 20.0646 36.5009 20.1401 36.2367 20.291C35.9801 20.4344 35.7838 20.6231 35.648 20.8571C35.5121 21.0911 35.4366 21.3402 35.4215 21.6044H38.8634ZM48.6127 27.5937C47.5937 27.5937 46.688 27.3861 45.8954 26.971C45.1104 26.5483 44.4915 25.9709 44.0386 25.2387C43.5933 24.499 43.3706 23.6537 43.3706 22.7026C43.3706 21.7516 43.5933 20.9062 44.0386 20.1665C44.4915 19.4192 45.1104 18.8305 45.8954 18.4003C46.688 17.97 47.5937 17.7549 48.6127 17.7549C49.6317 17.7549 50.5299 17.97 51.3074 18.4003C52.0848 18.8305 52.6924 19.4192 53.1302 20.1665C53.568 20.9062 53.7869 21.7516 53.7869 22.7026C53.7869 23.6537 53.568 24.499 53.1302 25.2387C52.6924 25.9709 52.0848 26.5483 51.3074 26.971C50.5299 27.3861 49.6317 27.5937 48.6127 27.5937ZM48.6127 24.7632C49.0052 24.7632 49.3449 24.6764 49.6317 24.5028C49.9185 24.3292 50.1412 24.0839 50.2997 23.7669C50.4582 23.4499 50.5375 23.0913 50.5375 22.6913C50.5375 22.2837 50.4582 21.9214 50.2997 21.6044C50.1412 21.2874 49.9185 21.0383 49.6317 20.8571C49.3449 20.676 49.0052 20.5854 48.6127 20.5854C48.2202 20.5854 47.8768 20.676 47.5824 20.8571C47.2956 21.0383 47.0692 21.2874 46.9031 21.6044C46.7446 21.9214 46.6653 22.2837 46.6653 22.6913C46.6653 23.0913 46.7446 23.4499 46.9031 23.7669C47.0692 24.0839 47.2956 24.3292 47.5824 24.5028C47.8768 24.6764 48.2202 24.7632 48.6127 24.7632ZM60.4125 12.3769H63.7752L69.6739 27.322H66.0622L64.9753 24.3217H59.2237L58.1255 27.322H54.5025L60.4125 12.3769ZM60.3559 21.3553H63.8544L62.1222 16.4529H62.0882L60.3559 21.3553ZM75.0469 17.7549C75.6583 17.7549 76.2169 17.8077 76.7226 17.9134C77.2283 18.0115 77.651 18.1248 77.9907 18.2531C78.3379 18.3814 78.5605 18.4871 78.6587 18.5701L77.5378 20.5967C77.3944 20.4911 77.1264 20.3552 76.7339 20.1891C76.349 20.0231 75.9187 19.94 75.4432 19.94C75.0809 19.94 74.7752 19.9967 74.5261 20.1099C74.277 20.2155 74.1525 20.3854 74.1525 20.6194C74.1525 20.8534 74.2884 21.0421 74.5601 21.1855C74.8394 21.3213 75.2394 21.4421 75.7602 21.5478C76.2131 21.6383 76.6735 21.7818 77.1415 21.978C77.6095 22.1743 77.9982 22.4649 78.3077 22.8498C78.6247 23.2272 78.7832 23.7329 78.7832 24.3669C78.7832 25.0161 78.6436 25.552 78.3643 25.9747C78.085 26.3974 77.7152 26.7257 77.2547 26.9597C76.7943 27.1937 76.2961 27.356 75.7602 27.4465C75.2243 27.5447 74.7035 27.5937 74.1978 27.5937C73.4883 27.5937 72.8693 27.5296 72.341 27.4012C71.8202 27.2729 71.3975 27.1257 71.0729 26.9597C70.7484 26.7936 70.5219 26.6615 70.3936 26.5634L71.5032 24.299C71.6994 24.4651 72.0202 24.6538 72.4655 24.8651C72.9109 25.0689 73.3826 25.1708 73.8808 25.1708C74.3638 25.1708 74.7375 25.0991 75.0017 24.9557C75.2658 24.8123 75.3979 24.6236 75.3979 24.3896C75.3979 24.2009 75.3338 24.0499 75.2054 23.9367C75.0771 23.8235 74.896 23.7254 74.662 23.6423C74.428 23.5593 74.145 23.4838 73.8128 23.4159C73.5109 23.3555 73.1901 23.2612 72.8505 23.1329C72.5108 23.0045 72.19 22.8309 71.8881 22.612C71.5862 22.3856 71.3409 22.1025 71.1522 21.7629C70.9635 21.4232 70.8691 21.0119 70.8691 20.5288C70.8691 19.9099 71.0691 19.3966 71.4692 18.989C71.8692 18.5814 72.3863 18.2757 73.0203 18.0719C73.6543 17.8606 74.3299 17.7549 75.0469 17.7549ZM84.7768 17.7549C85.3882 17.7549 85.9467 17.8077 86.4524 17.9134C86.9582 18.0115 87.3808 18.1248 87.7205 18.2531C88.0677 18.3814 88.2904 18.4871 88.3885 18.5701L87.2676 20.5967C87.1242 20.4911 86.8563 20.3552 86.4638 20.1891C86.0788 20.0231 85.6486 19.94 85.1731 19.94C84.8108 19.94 84.5051 19.9967 84.256 20.1099C84.0069 20.2155 83.8823 20.3854 83.8823 20.6194C83.8823 20.8534 84.0182 21.0421 84.2899 21.1855C84.5692 21.3213 84.9693 21.4421 85.4901 21.5478C85.943 21.6383 86.4034 21.7818 86.8714 21.978C87.3393 22.1743 87.7281 22.4649 88.0375 22.8498C88.3545 23.2272 88.513 23.7329 88.513 24.3669C88.513 25.0161 88.3734 25.552 88.0941 25.9747C87.8149 26.3974 87.445 26.7257 86.9846 26.9597C86.5241 27.1937 86.026 27.356 85.4901 27.4465C84.9542 27.5447 84.4334 27.5937 83.9276 27.5937C83.2181 27.5937 82.5992 27.5296 82.0708 27.4012C81.55 27.2729 81.1273 27.1257 80.8028 26.9597C80.4782 26.7936 80.2518 26.6615 80.1234 26.5634L81.233 24.299C81.4292 24.4651 81.75 24.6538 82.1954 24.8651C82.6407 25.0689 83.1125 25.1708 83.6106 25.1708C84.0937 25.1708 84.4673 25.0991 84.7315 24.9557C84.9957 24.8123 85.1278 24.6236 85.1278 24.3896C85.1278 24.2009 85.0636 24.0499 84.9353 23.9367C84.807 23.8235 84.6258 23.7254 84.3918 23.6423C84.1578 23.5593 83.8748 23.4838 83.5427 23.4159C83.2408 23.3555 82.92 23.2612 82.5803 23.1329C82.2407 23.0045 81.9199 22.8309 81.6179 22.612C81.316 22.3856 81.0707 22.1025 80.882 21.7629C80.6933 21.4232 80.599 21.0119 80.599 20.5288C80.599 19.9099 80.799 19.3966 81.199 18.989C81.5991 18.5814 82.1161 18.2757 82.7501 18.0719C83.3842 17.8606 84.0597 17.7549 84.7768 17.7549ZM90.4534 27.322V18.0266H93.8952V27.322H90.4534ZM92.2196 16.1132C91.6761 16.1132 91.2157 15.9245 90.8383 15.5471C90.4609 15.1622 90.2722 14.7055 90.2722 14.1771C90.2722 13.6488 90.4609 13.1921 90.8383 12.8072C91.2232 12.4147 91.6837 12.2184 92.2196 12.2184C92.5743 12.2184 92.8989 12.309 93.1933 12.4902C93.4876 12.6638 93.7254 12.8978 93.9066 13.1921C94.0877 13.4865 94.1783 13.8148 94.1783 14.1771C94.1783 14.7055 93.9858 15.1622 93.6009 15.5471C93.2159 15.9245 92.7555 16.1132 92.2196 16.1132ZM100.433 17.7549C101.044 17.7549 101.603 17.8077 102.109 17.9134C102.614 18.0115 103.037 18.1248 103.377 18.2531C103.724 18.3814 103.947 18.4871 104.045 18.5701L102.924 20.5967C102.78 20.4911 102.512 20.3552 102.12 20.1891C101.735 20.0231 101.305 19.94 100.829 19.94C100.467 19.94 100.161 19.9967 99.9122 20.1099C99.6631 20.2155 99.5386 20.3854 99.5386 20.6194C99.5386 20.8534 99.6744 21.0421 99.9461 21.1855C100.225 21.3213 100.625 21.4421 101.146 21.5478C101.599 21.6383 102.06 21.7818 102.528 21.978C102.996 22.1743 103.384 22.4649 103.694 22.8498C104.011 23.2272 104.169 23.7329 104.169 24.3669C104.169 25.0161 104.03 25.552 103.75 25.9747C103.471 26.3974 103.101 26.7257 102.641 26.9597C102.18 27.1937 101.682 27.356 101.146 27.4465C100.61 27.5447 100.09 27.5937 99.5838 27.5937C98.8743 27.5937 98.2554 27.5296 97.727 27.4012C97.2062 27.2729 96.7835 27.1257 96.459 26.9597C96.1344 26.7936 95.908 26.6615 95.7796 26.5634L96.8892 24.299C97.0855 24.4651 97.4062 24.6538 97.8516 24.8651C98.2969 25.0689 98.7687 25.1708 99.2668 25.1708C99.7499 25.1708 100.124 25.0991 100.388 24.9557C100.652 24.8123 100.784 24.6236 100.784 24.3896C100.784 24.2009 100.72 24.0499 100.591 23.9367C100.463 23.8235 100.282 23.7254 100.048 23.6423C99.8141 23.5593 99.531 23.4838 99.1989 23.4159C98.897 23.3555 98.5762 23.2612 98.2365 23.1329C97.8969 23.0045 97.5761 22.8309 97.2742 22.612C96.9722 22.3856 96.7269 22.1025 96.5382 21.7629C96.3495 21.4232 96.2552 21.0119 96.2552 20.5288C96.2552 19.9099 96.4552 19.3966 96.8552 18.989C97.2553 18.5814 97.7723 18.2757 98.4064 18.0719C99.0404 17.8606 99.7159 17.7549 100.433 17.7549ZM105.049 18.0266H106.634V14.2111H110.042V18.0266H112.125V20.8571H110.042V23.4499C110.042 23.8348 110.099 24.1481 110.212 24.3896C110.325 24.6236 110.533 24.7406 110.835 24.7406C111.038 24.7406 111.212 24.6953 111.355 24.6047C111.499 24.5141 111.586 24.4538 111.616 24.4236L112.793 26.8691C112.74 26.9144 112.574 26.9974 112.295 27.1182C112.023 27.239 111.676 27.3484 111.253 27.4465C110.831 27.5447 110.359 27.5937 109.838 27.5937C108.91 27.5937 108.144 27.3333 107.54 26.8125C106.936 26.2841 106.634 25.4727 106.634 24.3783V20.8571H105.049V18.0266ZM121.28 27.322V25.8162C121.212 25.9671 121.038 26.186 120.759 26.4728C120.487 26.7597 120.125 27.0201 119.672 27.2541C119.219 27.4805 118.691 27.5937 118.087 27.5937C117.181 27.5937 116.389 27.3748 115.709 26.937C115.03 26.4917 114.502 25.8992 114.124 25.1595C113.747 24.4122 113.558 23.5857 113.558 22.68C113.558 21.7742 113.747 20.9515 114.124 20.2118C114.502 19.4645 115.03 18.8682 115.709 18.4229C116.389 17.9776 117.181 17.7549 118.087 17.7549C118.668 17.7549 119.178 17.8493 119.615 18.0379C120.053 18.2191 120.408 18.438 120.68 18.6946C120.951 18.9437 121.14 19.1739 121.246 19.3853V18.0266H124.665V27.322H121.28ZM116.932 22.68C116.932 23.1027 117.03 23.4838 117.227 23.8235C117.423 24.1556 117.683 24.416 118.008 24.6047C118.34 24.7934 118.706 24.8878 119.106 24.8878C119.521 24.8878 119.887 24.7934 120.204 24.6047C120.521 24.416 120.77 24.1556 120.951 23.8235C121.14 23.4838 121.235 23.1027 121.235 22.68C121.235 22.2573 121.14 21.8799 120.951 21.5478C120.77 21.2081 120.521 20.9439 120.204 20.7552C119.887 20.559 119.521 20.4609 119.106 20.4609C118.706 20.4609 118.34 20.559 118.008 20.7552C117.683 20.9439 117.423 21.2081 117.227 21.5478C117.03 21.8799 116.932 22.2573 116.932 22.68ZM133.246 17.7549C133.895 17.7549 134.529 17.887 135.148 18.1512C135.767 18.4154 136.277 18.8343 136.677 19.4079C137.077 19.974 137.277 20.7213 137.277 21.6497V27.322H133.824V22.2158C133.824 21.5515 133.665 21.0534 133.348 20.7213C133.031 20.3816 132.616 20.2118 132.103 20.2118C131.763 20.2118 131.442 20.3024 131.14 20.4835C130.846 20.6571 130.604 20.9062 130.416 21.2308C130.234 21.5478 130.144 21.9138 130.144 22.329V27.322H126.702V18.0266H130.144V19.3966C130.234 19.1475 130.423 18.8984 130.71 18.6493C131.004 18.3927 131.37 18.1814 131.808 18.0153C132.254 17.8417 132.733 17.7549 133.246 17.7549ZM138.484 18.0266H140.069V14.2111H143.477V18.0266H145.561V20.8571H143.477V23.4499C143.477 23.8348 143.534 24.1481 143.647 24.3896C143.76 24.6236 143.968 24.7406 144.27 24.7406C144.474 24.7406 144.647 24.6953 144.791 24.6047C144.934 24.5141 145.021 24.4538 145.051 24.4236L146.229 26.8691C146.176 26.9144 146.01 26.9974 145.73 27.1182C145.459 27.239 145.111 27.3484 144.689 27.4465C144.266 27.5447 143.794 27.5937 143.273 27.5937C142.345 27.5937 141.579 27.3333 140.975 26.8125C140.371 26.2841 140.069 25.4727 140.069 24.3783V20.8571H138.484V18.0266ZM158.33 12.3769H161.693L167.592 27.322H163.98L162.893 24.3217H157.141L156.043 27.322H152.42L158.33 12.3769ZM158.274 21.3553H161.772L160.04 16.4529H160.006L158.274 21.3553ZM168.911 12.3769H172.297V27.322H168.911V12.3769Z" fill="white"/>
<path d="M23.0273 18.9664V16.702H20.7629V18.9664H23.0273ZM30.647 18.9664H32.9114V16.702H30.647V18.9664ZM30.1035 22.9177L27.9941 22.0945L27.9912 22.102L27.9883 22.1095L30.1035 22.9177ZM28.5751 25.3633L26.9303 23.8069L26.9303 23.8069L28.5751 25.3633ZM26.1975 27.005L25.3096 24.9219L25.3096 24.9219L26.1975 27.005ZM19.993 27.005L19.103 29.0872L19.1131 29.0915L19.1233 29.0957L19.993 27.005ZM17.5701 25.3406L19.2057 23.7746L19.2057 23.7746L17.5701 25.3406ZM16.0077 22.8724L13.8937 23.6842L13.896 23.6899L16.0077 22.8724ZM16.0077 16.8265L18.1194 17.6439L18.1216 17.6382L16.0077 16.8265ZM17.5701 14.3583L19.1973 15.933L19.2057 15.9243L17.5701 14.3583ZM19.993 12.7053L20.8687 14.7935L20.8769 14.79L19.993 12.7053ZM25.6314 12.4109L25.0123 14.5891L25.0183 14.5907L25.6314 12.4109ZM27.4995 13.2261L26.2625 15.1228L26.2625 15.1228L27.4995 13.2261ZM28.8242 14.347L27.1317 15.8514L27.1387 15.8592L27.1458 15.867L28.8242 14.347ZM29.7299 15.5245L30.6962 17.5724L33.0047 16.4831L31.648 14.321L29.7299 15.5245ZM26.5145 17.0416L24.6166 18.2767L25.6941 19.9325L27.4807 19.0895L26.5145 17.0416ZM25.2464 15.7962L23.9842 17.6761L23.9903 17.6803L23.9965 17.6844L25.2464 15.7962ZM21.4535 15.6264L20.4893 13.5775L20.4776 13.5831L21.4535 15.6264ZM20.1402 16.6227L21.8309 18.129L21.8377 18.1214L21.8443 18.1138L20.1402 16.6227ZM19.2797 18.0832L17.1525 17.3071L17.1495 17.3153L17.1466 17.3235L19.2797 18.0832ZM19.2797 21.6044L17.1466 22.3641L17.1512 22.377L17.1559 22.3899L19.2797 21.6044ZM21.4535 24.0613L20.4776 26.1046L20.4959 26.1133L20.5142 26.1216L21.4535 24.0613ZM24.6011 24.2084L25.2722 26.3711L25.2722 26.3711L24.6011 24.2084ZM25.7333 23.6197L24.3288 21.8435L24.3186 21.8515L24.3085 21.8597L25.7333 23.6197ZM26.4918 22.7139L24.4927 21.6505L24.4884 21.6585L24.4843 21.6665L26.4918 22.7139ZM26.8315 21.5478L29.0869 21.7491L29.3071 19.2834H26.8315V21.5478ZM23.0273 21.5478H20.7629V23.8122H23.0273V21.5478ZM23.0273 21.2308H30.647V16.702H23.0273V21.2308ZM28.3826 18.9664V19.9174H32.9114V18.9664H28.3826ZM28.3826 19.9174C28.3826 20.729 28.2465 21.4477 27.9941 22.0945L32.213 23.7409C32.6852 22.5309 32.9114 21.2495 32.9114 19.9174H28.3826ZM27.9883 22.1095C27.7366 22.7681 27.3842 23.3272 26.9303 23.8069L30.2199 26.9196C31.0944 25.9954 31.7609 24.9242 32.2188 23.726L27.9883 22.1095ZM26.9303 23.8069C26.4873 24.2751 25.9552 24.6467 25.3096 24.9219L27.0853 29.088C28.2815 28.5782 29.3344 27.8554 30.2199 26.9196L26.9303 23.8069ZM25.3096 24.9219C24.7003 25.1816 23.9879 25.3293 23.1405 25.3293V29.8581C24.5273 29.8581 25.8529 29.6133 27.0853 29.088L25.3096 24.9219ZM23.1405 25.3293C22.2455 25.3293 21.497 25.1781 20.8627 24.9143L19.1233 29.0957C20.376 29.6168 21.7258 29.8581 23.1405 29.8581V25.3293ZM20.883 24.9228C20.2174 24.6383 19.6661 24.2556 19.2057 23.7746L15.9345 26.9066C16.8327 27.8447 17.8967 28.5715 19.103 29.0872L20.883 24.9228ZM19.2057 23.7746C18.7374 23.2856 18.3763 22.7187 18.1194 22.055L13.896 23.6899C14.3637 24.8981 15.0441 25.9767 15.9345 26.9066L19.2057 23.7746ZM18.1216 22.0607C17.8653 21.3935 17.7286 20.659 17.7286 19.8381H13.1998C13.1998 21.176 13.4254 22.4644 13.8938 23.6842L18.1216 22.0607ZM17.7286 19.8381C17.7286 19.0267 17.8647 18.3019 18.1194 17.6439L13.896 16.0091C13.426 17.223 13.1998 18.5059 13.1998 19.8381H17.7286ZM18.1216 17.6382C18.3785 16.9691 18.7373 16.4084 19.1973 15.933L15.9429 12.7836C15.0443 13.7122 14.3614 14.7968 13.8938 16.0148L18.1216 17.6382ZM19.2057 15.9243C19.663 15.4466 20.2094 15.07 20.8687 14.7935L19.1173 10.6171C17.9047 11.1256 16.8358 11.8509 15.9345 12.7923L19.2057 15.9243ZM20.8769 14.79C21.5075 14.5227 22.2509 14.3696 23.1405 14.3696V9.84082C21.7204 9.84082 20.3655 10.0878 19.1091 10.6205L20.8769 14.79ZM23.1405 14.3696C23.9274 14.3696 24.5417 14.4553 25.0123 14.5891L26.2504 10.2328C25.2869 9.95893 24.2406 9.84082 23.1405 9.84082V14.3696ZM25.0183 14.5907C25.5667 14.745 25.9696 14.9318 26.2625 15.1228L28.7365 11.3294C27.9877 10.8411 27.1453 10.4844 26.2444 10.2311L25.0183 14.5907ZM26.2625 15.1228C26.6379 15.3676 26.9203 15.6135 27.1317 15.8514L30.5166 12.8426C30.0034 12.2653 29.4027 11.7639 28.7365 11.3294L26.2625 15.1228ZM27.1458 15.867C27.4351 16.1865 27.6524 16.4739 27.8118 16.728L31.648 14.321C31.3244 13.8051 30.9379 13.3076 30.5025 12.8269L27.1458 15.867ZM28.7637 13.4766L25.5482 14.9937L27.4807 19.0895L30.6962 17.5724L28.7637 13.4766ZM28.4124 15.8065C27.9128 15.0389 27.2564 14.4112 26.4963 13.908L23.9965 17.6844C24.3082 17.8907 24.4972 18.0933 24.6166 18.2767L28.4124 15.8065ZM26.5087 13.9162C25.4909 13.2329 24.3018 12.9997 23.1405 12.9997V17.5285C23.7304 17.5285 23.9452 17.65 23.9842 17.6761L26.5087 13.9162ZM23.1405 12.9997C22.2222 12.9997 21.3272 13.1832 20.4894 13.5775L22.4177 17.6752C22.6064 17.5865 22.8361 17.5285 23.1405 17.5285V12.9997ZM20.4776 13.5831C19.6935 13.9575 19.0081 14.4778 18.4361 15.1316L21.8443 18.1138C22.0119 17.9223 22.2021 17.7783 22.4294 17.6697L20.4776 13.5831ZM18.4495 15.1164C17.8764 15.7596 17.4475 16.4986 17.1525 17.3071L21.4069 18.8594C21.5195 18.5508 21.6643 18.316 21.8309 18.129L18.4495 15.1164ZM17.1466 17.3235C16.8585 18.1323 16.7209 18.9755 16.7209 19.8381H21.2497C21.2497 19.4629 21.3084 19.1362 21.4129 18.843L17.1466 17.3235ZM16.7209 19.8381C16.7209 20.705 16.8575 21.5524 17.1466 22.3641L21.4129 20.8446C21.3095 20.5543 21.2497 20.2242 21.2497 19.8381H16.7209ZM17.1559 22.3899C17.451 23.1876 17.8762 23.9162 18.4361 24.556L21.8443 21.5738C21.6645 21.3682 21.516 21.1231 21.4035 20.8189L17.1559 22.3899ZM18.4361 24.556C19.0081 25.2099 19.6935 25.7301 20.4776 26.1046L22.4294 22.0179C22.2021 21.9094 22.0119 21.7654 21.8443 21.5738L18.4361 24.556ZM20.5142 26.1216C21.3465 26.501 22.2326 26.6766 23.1405 26.6766V22.1478C22.8257 22.1478 22.5871 22.0894 22.3928 22.0009L20.5142 26.1216ZM23.1405 26.6766C23.8665 26.6766 24.584 26.5847 25.2722 26.3711L23.9299 22.0458C23.7426 22.1039 23.4864 22.1478 23.1405 22.1478V26.6766ZM25.2722 26.3711C25.9506 26.1605 26.5916 25.8382 27.158 25.3797L24.3085 21.8597C24.2408 21.9145 24.1271 21.9846 23.9299 22.0458L25.2722 26.3711ZM27.1377 25.3959C27.698 24.9529 28.1625 24.4071 28.4994 23.7614L24.4843 21.6665C24.4589 21.7152 24.4177 21.7732 24.3288 21.8435L27.1377 25.3959ZM28.491 23.7773C28.8298 23.1404 29.0238 22.4562 29.0869 21.7491L24.5761 21.3464C24.5637 21.4847 24.5313 21.5779 24.4927 21.6505L28.491 23.7773ZM26.8315 19.2834H23.0273V23.8122H26.8315V19.2834ZM25.2917 21.5478V18.9664H20.7629V21.5478H25.2917ZM35.3423 23.4046V21.1402H32.9182L33.0831 23.5586L35.3423 23.4046ZM35.6593 24.2877L33.835 25.6291L33.835 25.6291L35.6593 24.2877ZM36.4405 24.8991L35.5035 26.9605L35.5314 26.9732L35.5597 26.9852L36.4405 24.8991ZM38.8181 24.9783L38.2579 22.7843L38.2465 22.7873L38.8181 24.9783ZM39.7352 24.6387L38.6996 22.625L38.6876 22.6311L38.6757 22.6374L39.7352 24.6387ZM40.3466 24.2198L42.2645 23.016L40.7542 20.6098L38.7454 22.6186L40.3466 24.2198ZM41.6826 26.3483L43.3441 27.8867L44.5227 26.6138L43.6005 25.1445L41.6826 26.3483ZM40.8787 26.9484L41.9784 28.9278L41.9857 28.9238L41.9929 28.9197L40.8787 26.9484ZM39.5314 27.4126L40.01 29.6258L39.5314 27.4126ZM32.7835 25.318L30.8557 26.5058L30.8557 26.5058L32.7835 25.318ZM32.6816 20.1325L30.6945 19.0468L30.6905 19.054L32.6816 20.1325ZM34.4139 18.4003L35.5203 20.376L35.5278 20.3718L35.5352 20.3675L34.4139 18.4003ZM39.7692 18.3097L38.7565 20.335L38.7647 20.3391L39.7692 18.3097ZM41.4901 19.9627L39.503 21.0484L39.5097 21.0607L39.5165 21.0728L41.4901 19.9627ZM42.0902 23.0423L39.8278 22.948L39.8258 22.9951V23.0423H42.0902ZM42.0675 23.4046V25.669H43.8355L44.2643 23.9538L42.0675 23.4046ZM38.8634 21.6044V23.8688H41.1997L41.1267 21.5337L38.8634 21.6044ZM38.6709 20.8911L36.6456 21.9038L36.6521 21.9167L36.6588 21.9296L38.6709 20.8911ZM38.1275 20.3024L36.8851 22.1955L36.9061 22.2093L36.9274 22.2226L38.1275 20.3024ZM36.2367 20.291L37.3413 22.2677L37.3508 22.2624L37.3602 22.2571L36.2367 20.291ZM35.4215 21.6044L33.1608 21.4752L33.024 23.8688H35.4215V21.6044ZM33.0831 23.5586C33.1336 24.2995 33.3797 25.01 33.835 25.6291L37.4836 22.9463C37.5165 22.991 37.5473 23.0468 37.5698 23.1094C37.592 23.1712 37.5994 23.2214 37.6014 23.2505L33.0831 23.5586ZM33.835 25.6291C34.2845 26.2405 34.8708 26.6729 35.5035 26.9605L37.3775 22.8376C37.3582 22.8289 37.3669 22.8304 37.3917 22.8498C37.4176 22.8701 37.4512 22.9023 37.4836 22.9463L33.835 25.6291ZM35.5597 26.9852C36.2382 27.2716 36.9505 27.3786 37.6406 27.3786V22.8498C37.41 22.8498 37.3222 22.8134 37.3213 22.813L35.5597 26.9852ZM37.6406 27.3786C38.2307 27.3786 38.8203 27.318 39.3897 27.1694L38.2465 22.7873C38.1216 22.8199 37.9262 22.8498 37.6406 22.8498V27.3786ZM39.3783 27.1724C39.8637 27.0484 40.3451 26.878 40.7947 26.6399L38.6757 22.6374C38.6121 22.6711 38.482 22.7271 38.258 22.7843L39.3783 27.1724ZM40.7708 26.6524C41.1561 26.4542 41.5807 26.1881 41.9478 25.8209L38.7454 22.6186C38.769 22.595 38.787 22.5796 38.7969 22.5715C38.8069 22.5634 38.8106 22.5611 38.8063 22.5641C38.802 22.567 38.7914 22.574 38.7732 22.5847C38.7551 22.5954 38.7309 22.6089 38.6996 22.625L40.7708 26.6524ZM38.4287 25.4236L39.7647 27.5521L43.6005 25.1445L42.2645 23.016L38.4287 25.4236ZM40.0211 24.8098C40.0371 24.7926 40.0305 24.803 39.9856 24.8366C39.9412 24.8697 39.8701 24.9174 39.7645 24.9771L41.9929 28.9197C42.463 28.654 42.9437 28.3192 43.3441 27.8867L40.0211 24.8098ZM39.779 24.9689C39.7019 25.0118 39.4862 25.1056 39.0529 25.1993L40.01 29.6258C40.6937 29.478 41.3762 29.2624 41.9784 28.9278L39.779 24.9689ZM39.0529 25.1993C38.708 25.2739 38.1767 25.3293 37.4142 25.3293V29.8581C38.3576 29.8581 39.2377 29.7928 40.01 29.6258L39.0529 25.1993ZM37.4142 25.3293C36.6746 25.3293 36.1054 25.192 35.656 24.9758L33.6925 29.0568C34.8433 29.6105 36.1008 29.8581 37.4142 29.8581V25.3293ZM35.656 24.9758C35.2416 24.7764 34.9417 24.504 34.7113 24.1301L30.8557 26.5058C31.5462 27.6265 32.5068 28.4863 33.6925 29.0568L35.656 24.9758ZM34.7113 24.1301C34.5165 23.814 34.3573 23.3342 34.3573 22.5781H29.8285C29.8285 23.9806 30.1296 25.3275 30.8557 26.5058L34.7113 24.1301ZM34.3573 22.5781C34.3573 22.0108 34.4769 21.5725 34.6727 21.211L30.6905 19.054C30.1013 20.1418 29.8285 21.3338 29.8285 22.5781H34.3573ZM34.6687 21.2183C34.8569 20.8739 35.1224 20.5987 35.5203 20.376L33.3075 16.4246C32.1957 17.0471 31.3064 17.9268 30.6945 19.0468L34.6687 21.2183ZM35.5352 20.3675C35.8794 20.1713 36.3836 20.0193 37.1425 20.0193V15.4905C35.7729 15.4905 34.458 15.7687 33.2925 16.433L35.5352 20.3675ZM37.1425 20.0193C37.8795 20.0193 38.3936 20.1536 38.7565 20.335L40.7818 16.2843C39.6653 15.7261 38.4283 15.4905 37.1425 15.4905V20.0193ZM38.7647 20.3391C39.095 20.5026 39.3257 20.724 39.503 21.0484L43.4772 18.8769C42.8544 17.7371 41.9378 16.8565 40.7736 16.2803L38.7647 20.3391ZM39.5165 21.0728C39.6837 21.37 39.8371 21.8659 39.8371 22.68H44.3659C44.3659 21.3203 44.1118 20.0046 43.4637 18.8525L39.5165 21.0728ZM39.8371 22.68C39.8371 22.6735 39.8371 22.6899 39.8354 22.7451C39.8338 22.7948 39.8313 22.8618 39.8278 22.948L44.3526 23.1365C44.3598 22.9633 44.3659 22.7954 44.3659 22.68H39.8371ZM39.8258 23.0423C39.8258 23.1064 39.8243 23.131 39.8245 23.1275C39.8247 23.125 39.8261 23.1029 39.8305 23.0671C39.8329 23.0485 39.8366 23.0217 39.8423 22.9888C39.848 22.9565 39.8569 22.9107 39.8708 22.8554L44.2643 23.9538C44.3578 23.5799 44.3546 23.1814 44.3546 23.0423H39.8258ZM42.0675 21.1402H35.3423V25.669H42.0675V21.1402ZM41.1267 21.5337C41.1077 20.9254 40.9446 20.3591 40.6831 19.8525L36.6588 21.9296C36.6504 21.9135 36.636 21.8816 36.6234 21.8348C36.6107 21.7875 36.6019 21.7331 36.6001 21.6751L41.1267 21.5337ZM40.6963 19.8784C40.3788 19.2435 39.9023 18.7413 39.3276 18.3821L36.9274 22.2226C36.8884 22.1982 36.8356 22.1582 36.7806 22.0987C36.7251 22.0385 36.6794 21.9714 36.6456 21.9038L40.6963 19.8784ZM39.3699 18.4092C38.6617 17.9445 37.8847 17.8002 37.1991 17.8002V22.329C37.2683 22.329 37.1102 22.3432 36.8851 22.1955L39.3699 18.4092ZM37.1991 17.8002C36.5214 17.8002 35.7927 17.9367 35.1133 18.325L37.3602 22.2571C37.2091 22.3434 37.122 22.329 37.1991 22.329V17.8002ZM35.1321 18.3143C34.5524 18.6383 34.0471 19.1046 33.6897 19.7201L37.6062 21.9942C37.5676 22.0607 37.5195 22.1215 37.4665 22.1724C37.4144 22.2225 37.3687 22.2524 37.3413 22.2677L35.1321 18.3143ZM33.6897 19.7201C33.3795 20.2544 33.1967 20.8478 33.1608 21.4752L37.6822 21.7336C37.6797 21.7774 37.6716 21.8263 37.6565 21.8761C37.6415 21.9257 37.6227 21.9657 37.6062 21.9942L33.6897 19.7201ZM35.4215 23.8688H38.8634V19.34H35.4215V23.8688ZM45.8954 26.971L44.8219 28.9647L44.8333 28.9709L44.8447 28.9769L45.8954 26.971ZM44.0386 25.2387L42.0987 26.4067L42.1057 26.4183L42.1129 26.4299L44.0386 25.2387ZM44.0386 20.1665L42.1021 18.9928L42.0987 18.9986L44.0386 20.1665ZM45.8954 18.4003L44.8151 16.4102L44.8071 16.4145L45.8954 18.4003ZM51.3074 18.4003L52.4038 16.419L52.4038 16.419L51.3074 18.4003ZM53.1302 20.1665L51.1764 21.3111L51.1815 21.3198L53.1302 20.1665ZM53.1302 25.2387L55.0737 26.4008L55.0789 26.392L53.1302 25.2387ZM51.3074 26.971L52.374 28.9685L52.3815 28.9645L52.389 28.9604L51.3074 26.971ZM49.6317 24.5028L48.4592 22.5656L48.4592 22.5656L49.6317 24.5028ZM50.2997 23.7669L48.2744 22.7542L48.2744 22.7542L50.2997 23.7669ZM50.2997 21.6044L48.2744 22.617L48.2744 22.6171L50.2997 21.6044ZM49.6317 20.8571L48.4225 22.7717L48.4225 22.7717L49.6317 20.8571ZM47.5824 20.8571L46.3957 18.9286L46.3844 18.9356L46.3732 18.9426L47.5824 20.8571ZM46.9031 21.6044L44.8972 20.5537L44.8873 20.5726L44.8778 20.5917L46.9031 21.6044ZM46.9031 23.7669L44.8778 24.7796L44.8873 24.7987L44.8972 24.8176L46.9031 23.7669ZM47.5824 24.5028L46.4099 26.44L46.421 26.4467L46.4321 26.4533L47.5824 24.5028ZM48.6127 25.3293C47.9084 25.3293 47.3719 25.1882 46.9461 24.9651L44.8447 28.9769C46.0041 29.5841 47.2791 29.8581 48.6127 29.8581V25.3293ZM46.969 24.9773C46.5205 24.7358 46.2008 24.4298 45.9644 24.0475L42.1129 26.4299C42.7822 27.512 43.7004 28.3609 44.8219 28.9647L46.969 24.9773ZM45.9786 24.0708C45.7667 23.7188 45.635 23.2852 45.635 22.7026H41.1062C41.1062 24.0222 41.4199 25.2792 42.0987 26.4067L45.9786 24.0708ZM45.635 22.7026C45.635 22.1201 45.7667 21.6864 45.9786 21.3344L42.0987 18.9986C41.4199 20.126 41.1062 21.3831 41.1062 22.7026H45.635ZM45.9751 21.3401C46.2164 20.9421 46.539 20.6297 46.9838 20.386L44.8071 16.4145C43.6819 17.0313 42.7666 17.8964 42.1021 18.9928L45.9751 21.3401ZM46.9758 20.3903C47.3956 20.1624 47.9214 20.0193 48.6127 20.0193V15.4905C47.2661 15.4905 45.9804 15.7776 44.8151 16.4102L46.9758 20.3903ZM48.6127 20.0193C49.3051 20.0193 49.8156 20.1627 50.2109 20.3815L52.4038 16.419C51.2442 15.7773 49.9583 15.4905 48.6127 15.4905V20.0193ZM50.2109 20.3815C50.6424 20.6203 50.9497 20.9241 51.1764 21.3111L55.084 19.0218C54.4352 17.9144 53.5272 17.0407 52.4038 16.419L50.2109 20.3815ZM51.1815 21.3198C51.3911 21.674 51.5225 22.1129 51.5225 22.7026H56.0513C56.0513 21.3902 55.7448 20.1384 55.0789 19.0132L51.1815 21.3198ZM51.5225 22.7026C51.5225 23.2923 51.3911 23.7313 51.1815 24.0854L55.0789 26.392C55.7448 25.2668 56.0513 24.015 56.0513 22.7026H51.5225ZM51.1867 24.0767C50.965 24.4475 50.6609 24.745 50.2258 24.9816L52.389 28.9604C53.5087 28.3516 54.4199 27.4943 55.0737 26.4008L51.1867 24.0767ZM50.2408 24.9735C49.8395 25.1878 49.3181 25.3293 48.6127 25.3293V29.8581C49.9453 29.8581 51.2204 29.5845 52.374 28.9685L50.2408 24.9735ZM48.6127 27.0276C49.3471 27.0276 50.1072 26.8619 50.8042 26.44L48.4592 22.5656C48.5146 22.5321 48.5654 22.5134 48.6012 22.5042C48.6349 22.4956 48.6421 22.4988 48.6127 22.4988V27.0276ZM50.8042 26.44C51.4782 26.0321 51.9867 25.4562 52.325 24.7796L48.2744 22.7542C48.2811 22.7407 48.3002 22.7074 48.3371 22.6667C48.3747 22.6253 48.4176 22.5908 48.4592 22.5656L50.8042 26.44ZM52.325 24.7796C52.66 24.1097 52.8019 23.3973 52.8019 22.6913H48.2731C48.2731 22.7415 48.2681 22.7663 48.267 22.7715C48.2661 22.7757 48.2675 22.7679 48.2744 22.7542L52.325 24.7796ZM52.8019 22.6913C52.8019 21.985 52.6628 21.2672 52.325 20.5917L48.2744 22.6171C48.2659 22.6001 48.2645 22.5914 48.2659 22.5978C48.2676 22.6052 48.2731 22.6344 48.2731 22.6913H52.8019ZM52.325 20.5917C51.9905 19.9226 51.4929 19.3544 50.8409 18.9426L48.4225 22.7717C48.391 22.7517 48.3565 22.7235 48.3256 22.6889C48.2951 22.6549 48.2795 22.6273 48.2744 22.617L52.325 20.5917ZM50.8409 18.9426C50.1382 18.4988 49.3647 18.321 48.6127 18.321V22.8498C48.6346 22.8498 48.6195 22.8522 48.5784 22.8413C48.5351 22.8297 48.4796 22.8077 48.4225 22.7717L50.8409 18.9426ZM48.6127 18.321C47.8593 18.321 47.0934 18.4993 46.3957 18.9286L48.7692 22.7856C48.722 22.8147 48.6753 22.8331 48.6382 22.8429C48.6029 22.8522 48.5912 22.8498 48.6127 22.8498V18.321ZM46.3732 18.9426C45.7307 19.3484 45.2376 19.9038 44.8972 20.5537L48.909 22.6551C48.9081 22.6568 48.8975 22.6761 48.873 22.703C48.848 22.7305 48.8192 22.7542 48.7916 22.7717L46.3732 18.9426ZM44.8778 20.5917C44.54 21.2672 44.4009 21.985 44.4009 22.6913H48.9297C48.9297 22.6344 48.9352 22.6052 48.9369 22.5978C48.9383 22.5914 48.9369 22.6001 48.9284 22.6171L44.8778 20.5917ZM44.4009 22.6913C44.4009 23.3973 44.5428 24.1097 44.8778 24.7796L48.9284 22.7542C48.9353 22.7679 48.9367 22.7757 48.9358 22.7715C48.9347 22.7663 48.9297 22.7415 48.9297 22.6913H44.4009ZM44.8972 24.8176C45.2415 25.4749 45.7456 26.0379 46.4099 26.44L48.7549 22.5656C48.7925 22.5884 48.8298 22.6185 48.8614 22.6527C48.8923 22.6862 48.9064 22.7113 48.909 22.7162L44.8972 24.8176ZM46.4321 26.4533C47.1241 26.8614 47.8767 27.0276 48.6127 27.0276V22.4988C48.5837 22.4988 48.5876 22.4957 48.6156 22.5028C48.6454 22.5103 48.6874 22.5256 48.7327 22.5523L46.4321 26.4533ZM60.4125 12.3769V10.1125H58.873L58.3068 11.5442L60.4125 12.3769ZM63.7752 12.3769L65.8815 11.5456L65.3158 10.1125H63.7752V12.3769ZM69.6739 27.322V29.5864H73.0021L71.7802 26.4907L69.6739 27.322ZM66.0622 27.322L63.9332 28.0933L64.4741 29.5864H66.0622V27.322ZM64.9753 24.3217L67.1043 23.5504L66.5634 22.0573H64.9753V24.3217ZM59.2237 24.3217V22.0573H57.6413L57.0973 23.5433L59.2237 24.3217ZM58.1255 27.322V29.5864H59.708L60.2519 28.1003L58.1255 27.322ZM54.5025 27.322L52.3967 26.4893L51.172 29.5864H54.5025V27.322ZM60.3559 21.3553L58.2209 20.6009L57.1542 23.6197H60.3559V21.3553ZM63.8544 21.3553V23.6197H67.0562L65.9895 20.6009L63.8544 21.3553ZM62.1222 16.4529L64.2572 15.6985L63.7236 14.1885H62.1222V16.4529ZM62.0882 16.4529V14.1885H60.4867L59.9532 15.6985L62.0882 16.4529ZM60.4125 14.6413H63.7752V10.1125H60.4125V14.6413ZM61.6689 13.2083L67.5677 28.1533L71.7802 26.4907L65.8815 11.5456L61.6689 13.2083ZM69.6739 25.0576H66.0622V29.5864H69.6739V25.0576ZM68.1912 26.5507L67.1043 23.5504L62.8463 25.0929L63.9332 28.0933L68.1912 26.5507ZM64.9753 22.0573H59.2237V26.5861H64.9753V22.0573ZM57.0973 23.5433L55.9991 26.5436L60.2519 28.1003L61.3502 25.1L57.0973 23.5433ZM58.1255 25.0576H54.5025V29.5864H58.1255V25.0576ZM56.6082 28.1547L62.5183 13.2097L58.3068 11.5442L52.3967 26.4893L56.6082 28.1547ZM60.3559 23.6197H63.8544V19.0909H60.3559V23.6197ZM65.9895 20.6009L64.2572 15.6985L59.9871 17.2073L61.7194 22.1097L65.9895 20.6009ZM62.1222 14.1885H62.0882V18.7173H62.1222V14.1885ZM59.9532 15.6985L58.2209 20.6009L62.491 22.1097L64.2232 17.2073L59.9532 15.6985ZM76.7226 17.9134L76.2594 20.1299L76.2753 20.1333L76.2913 20.1364L76.7226 17.9134ZM77.9907 18.2531L77.1904 20.3714L77.1981 20.3742L77.2057 20.3771L77.9907 18.2531ZM78.6587 18.5701L80.6402 19.666L81.5389 18.041L80.1213 16.8415L78.6587 18.5701ZM77.5378 20.5967L76.1945 22.4197L78.271 23.9497L79.5193 21.6927L77.5378 20.5967ZM76.7339 20.1891L75.837 22.2683L75.8443 22.2715L75.8516 22.2746L76.7339 20.1891ZM74.5261 20.1099L75.4105 22.1944L75.437 22.1832L75.4631 22.1713L74.5261 20.1099ZM74.5601 21.1855L73.5032 23.1881L73.5361 23.2054L73.5695 23.2217L74.5601 21.1855ZM75.7602 21.5478L75.31 23.767L75.3161 23.7682L75.7602 21.5478ZM77.1415 21.978L78.0172 19.8898L78.0172 19.8898L77.1415 21.978ZM78.3077 22.8498L76.5429 24.2686L76.5581 24.2876L76.5738 24.3062L78.3077 22.8498ZM78.3643 25.9747L80.2536 27.2229L80.2536 27.2229L78.3643 25.9747ZM77.2547 26.9597L76.2288 24.941L76.2288 24.941L77.2547 26.9597ZM75.7602 27.4465L75.3829 25.2138L75.3676 25.2164L75.3524 25.2192L75.7602 27.4465ZM72.341 27.4012L71.7993 29.5999L71.8066 29.6017L72.341 27.4012ZM71.0729 26.9597L70.0415 28.9756L71.0729 26.9597ZM70.3936 26.5634L68.3602 25.567L67.5432 27.2343L69.0181 28.3622L70.3936 26.5634ZM71.5032 24.299L72.9658 22.5704L70.7481 20.6938L69.4697 23.3026L71.5032 24.299ZM72.4655 24.8651L71.4947 26.9108L71.5089 26.9176L71.5233 26.9242L72.4655 24.8651ZM75.0017 24.9557L76.082 26.9458L76.082 26.9458L75.0017 24.9557ZM75.2054 23.9367L76.7036 22.2388L76.7036 22.2388L75.2054 23.9367ZM74.662 23.6423L73.9048 25.7764L73.9048 25.7764L74.662 23.6423ZM73.8128 23.4159L74.2666 21.1974L74.2569 21.1955L73.8128 23.4159ZM72.8505 23.1329L72.0502 25.2511L72.0502 25.2511L72.8505 23.1329ZM71.8881 22.612L70.5295 24.4236L70.5441 24.4346L70.559 24.4453L71.8881 22.612ZM71.1522 21.7629L73.1316 20.6632L73.1316 20.6632L71.1522 21.7629ZM71.4692 18.989L69.8531 17.4029L69.8531 17.4029L71.4692 18.989ZM73.0203 18.0719L73.7132 20.2277L73.7248 20.224L73.7364 20.2201L73.0203 18.0719ZM75.0469 20.0193C75.5302 20.0193 75.9308 20.0613 76.2594 20.1299L77.1857 15.6969C76.503 15.5542 75.7865 15.4905 75.0469 15.4905V20.0193ZM76.2913 20.1364C76.7188 20.2193 77.0086 20.3027 77.1904 20.3714L78.7909 16.1348C78.2934 15.9468 77.7378 15.8038 77.1539 15.6905L76.2913 20.1364ZM77.2057 20.3771C77.2721 20.4016 77.3256 20.4225 77.3676 20.4398C77.4103 20.4573 77.4357 20.4688 77.4472 20.4743C77.4526 20.4768 77.4524 20.4769 77.4476 20.4744C77.443 20.4719 77.4311 20.4656 77.4136 20.4553C77.3964 20.4452 77.3692 20.4286 77.3349 20.405C77.3013 20.382 77.2528 20.3468 77.196 20.2987L80.1213 16.8415C79.8425 16.6056 79.5469 16.4578 79.3889 16.3828C79.1948 16.2907 78.9844 16.2062 78.7756 16.1291L77.2057 20.3771ZM76.6771 17.4742L75.5563 19.5008L79.5193 21.6927L80.6402 19.666L76.6771 17.4742ZM78.881 18.7738C78.5007 18.4935 78.009 18.2699 77.6162 18.1037L75.8516 22.2746C76.0179 22.3449 76.1324 22.3983 76.2052 22.4352C76.2408 22.4532 76.2577 22.463 76.2603 22.4645C76.2651 22.4673 76.239 22.4525 76.1945 22.4197L78.881 18.7738ZM77.6308 18.1099C76.927 17.8063 76.1859 17.6756 75.4432 17.6756V22.2044C75.6516 22.2044 75.7709 22.2398 75.837 22.2683L77.6308 18.1099ZM75.4432 17.6756C74.8575 17.6756 74.2115 17.7656 73.5891 18.0484L75.4631 22.1713C75.3992 22.2004 75.3586 22.2083 75.3545 22.209C75.3524 22.2094 75.3583 22.2082 75.3733 22.207C75.3884 22.2057 75.4114 22.2044 75.4432 22.2044V17.6756ZM73.6418 18.0253C73.2469 18.1928 72.7827 18.4827 72.4199 18.9774C72.0413 19.4937 71.8881 20.0769 71.8881 20.6194H76.4169C76.4169 20.9279 76.326 21.3092 76.0719 21.6556C75.8336 21.9805 75.5563 22.1326 75.4105 22.1944L73.6418 18.0253ZM71.8881 20.6194C71.8881 21.9606 72.7595 22.7956 73.5032 23.1881L75.617 19.1829C75.6951 19.2241 75.9009 19.3478 76.092 19.6133C76.3034 19.9069 76.4169 20.2647 76.4169 20.6194H71.8881ZM73.5695 23.2217C74.0996 23.4796 74.7143 23.6461 75.31 23.767L76.2105 19.3286C76.0014 19.2862 75.8417 19.2457 75.724 19.2102C75.666 19.1927 75.6228 19.1777 75.5924 19.1663C75.5617 19.1546 75.549 19.1484 75.5507 19.1492L73.5695 23.2217ZM75.3161 23.7682C75.6074 23.8265 75.9234 23.9227 76.2658 24.0662L78.0172 19.8898C77.4236 19.6409 76.8188 19.4502 76.2043 19.3273L75.3161 23.7682ZM76.2658 24.0662C76.3962 24.1209 76.4761 24.1855 76.5429 24.2686L80.0725 21.431C79.5203 20.7442 78.8227 20.2276 78.0172 19.8898L76.2658 24.0662ZM76.5738 24.3062C76.5519 24.2801 76.5346 24.2539 76.522 24.2305C76.5096 24.2074 76.5045 24.1923 76.5036 24.1894C76.5022 24.185 76.5188 24.236 76.5188 24.3669H81.0476C81.0476 23.3558 80.7895 22.2838 80.0415 21.3934L76.5738 24.3062ZM76.5188 24.3669C76.5188 24.6962 76.4492 24.7654 76.475 24.7264L80.2536 27.2229C80.8379 26.3385 81.0476 25.336 81.0476 24.3669H76.5188ZM76.475 24.7264C76.4163 24.8152 76.3467 24.8811 76.2288 24.941L78.2806 28.9784C79.0836 28.5703 79.7537 27.9795 80.2536 27.2229L76.475 24.7264ZM76.2288 24.941C75.983 25.066 75.7049 25.1594 75.3829 25.2138L76.1376 29.6793C76.8874 29.5525 77.6056 29.3214 78.2806 28.9784L76.2288 24.941ZM75.3524 25.2192C74.9408 25.2945 74.5567 25.3293 74.1978 25.3293V29.8581C74.8503 29.8581 75.5079 29.7948 76.1681 29.6739L75.3524 25.2192ZM74.1978 25.3293C73.617 25.3293 73.1851 25.276 72.8754 25.2008L71.8066 29.6017C72.5536 29.7831 73.3596 29.8581 74.1978 29.8581V25.3293ZM72.8827 25.2026C72.46 25.0985 72.219 25.0025 72.1043 24.9438L70.0415 28.9756C70.576 29.249 71.1803 29.4474 71.7993 29.5999L72.8827 25.2026ZM72.1043 24.9438C71.966 24.873 71.8671 24.8189 71.8006 24.7801C71.768 24.7611 71.749 24.7492 71.7409 24.7439C71.7315 24.7378 71.7433 24.7449 71.7691 24.7647L69.0181 28.3622C69.322 28.5946 69.708 28.8049 70.0415 28.9756L72.1043 24.9438ZM72.427 27.5598L73.5366 25.2954L69.4697 23.3026L68.3602 25.567L72.427 27.5598ZM70.0405 26.0276C70.4665 26.3881 71.0027 26.6774 71.4947 26.9108L73.4364 22.8194C73.2561 22.7338 73.1268 22.6649 73.039 22.6133C72.9451 22.5581 72.9328 22.5424 72.9658 22.5704L70.0405 26.0276ZM71.5233 26.9242C72.2695 27.2656 73.0632 27.4352 73.8808 27.4352V22.9064C73.702 22.9064 73.5522 22.8722 73.4078 22.8061L71.5233 26.9242ZM73.8808 27.4352C74.5359 27.4352 75.3434 27.3467 76.082 26.9458L73.9213 22.9656C73.9821 22.9326 74.0303 22.914 74.0593 22.9042C74.0882 22.8944 74.102 22.8922 74.0965 22.8932C74.0911 22.8943 74.071 22.8977 74.0337 22.9009C73.9965 22.904 73.9461 22.9064 73.8808 22.9064V27.4352ZM76.082 26.9458C76.8334 26.5379 77.6623 25.6974 77.6623 24.3896H73.1335C73.1335 24.0499 73.2389 23.7007 73.4438 23.4081C73.6307 23.1411 73.8356 23.0121 73.9213 22.9656L76.082 26.9458ZM77.6623 24.3896C77.6623 23.626 77.3725 22.829 76.7036 22.2388L73.7073 25.6346C73.5292 25.4776 73.3717 25.2697 73.2658 25.0205C73.1623 24.7769 73.1335 24.5542 73.1335 24.3896H77.6623ZM76.7036 22.2388C76.284 21.8685 75.8133 21.6481 75.4192 21.5083L73.9048 25.7764C73.9328 25.7863 73.9259 25.7861 73.8949 25.7693C73.8643 25.7527 73.7943 25.7115 73.7073 25.6346L76.7036 22.2388ZM75.4192 21.5083C75.0578 21.3801 74.6673 21.2794 74.2666 21.1974L73.3591 25.6344C73.6226 25.6883 73.7982 25.7386 73.9048 25.7764L75.4192 21.5083ZM74.2569 21.1955C74.0955 21.1632 73.8946 21.1067 73.6507 21.0146L72.0502 25.2511C72.4857 25.4156 72.9263 25.5478 73.3688 25.6363L74.2569 21.1955ZM73.6507 21.0146C73.5043 20.9593 73.3607 20.8828 73.2172 20.7788L70.559 24.4453C71.0193 24.7791 71.5173 25.0498 72.0502 25.2511L73.6507 21.0146ZM73.2467 20.8005C73.2071 20.7708 73.1704 20.733 73.1316 20.6632L69.1727 22.8626C69.5113 23.4721 69.9653 24.0004 70.5295 24.4236L73.2467 20.8005ZM73.1316 20.6632C73.1492 20.6948 73.1506 20.7093 73.147 20.6934C73.1429 20.6756 73.1335 20.6239 73.1335 20.5288H68.6047C68.6047 21.3043 68.7569 22.1141 69.1727 22.8626L73.1316 20.6632ZM73.1335 20.5288C73.1335 20.4961 73.1361 20.4803 73.1365 20.4783C73.1368 20.4768 73.1352 20.4858 73.129 20.5019C73.1226 20.5182 73.1139 20.5352 73.1038 20.5508C73.0938 20.5661 73.0862 20.5742 73.0853 20.5751L69.8531 17.4029C69.0008 18.2713 68.6047 19.3713 68.6047 20.5288H73.1335ZM73.0853 20.5751C73.1887 20.4698 73.3704 20.3379 73.7132 20.2277L72.3274 15.9161C71.4022 16.2135 70.5498 16.693 69.8531 17.4029L73.0853 20.5751ZM73.7364 20.2201C74.1232 20.0912 74.5555 20.0193 75.0469 20.0193V15.4905C74.1043 15.4905 73.1854 15.63 72.3042 15.9237L73.7364 20.2201ZM86.4524 17.9134L85.9893 20.1299L86.0052 20.1333L86.0211 20.1364L86.4524 17.9134ZM87.7205 18.2531L86.9203 20.3714L86.9279 20.3742L86.9355 20.3771L87.7205 18.2531ZM88.3885 18.5701L90.37 19.666L91.2688 18.041L89.8512 16.8415L88.3885 18.5701ZM87.2676 20.5967L85.9244 22.4197L88.0008 23.9497L89.2492 21.6927L87.2676 20.5967ZM86.4638 20.1891L85.5669 22.2683L85.5741 22.2715L85.5815 22.2746L86.4638 20.1891ZM84.256 20.1099L85.1403 22.1944L85.1668 22.1832L85.193 22.1713L84.256 20.1099ZM84.2899 21.1855L83.233 23.1881L83.2659 23.2054L83.2993 23.2217L84.2899 21.1855ZM85.4901 21.5478L85.0398 23.767L85.046 23.7682L85.4901 21.5478ZM86.8714 21.978L87.7471 19.8898L87.7471 19.8898L86.8714 21.978ZM88.0375 22.8498L86.2727 24.2686L86.288 24.2876L86.3037 24.3062L88.0375 22.8498ZM88.0941 25.9747L89.9834 27.2229L89.9834 27.2229L88.0941 25.9747ZM86.9846 26.9597L85.9587 24.941L85.9587 24.941L86.9846 26.9597ZM85.4901 27.4465L85.1127 25.2138L85.0975 25.2164L85.0822 25.2192L85.4901 27.4465ZM82.0708 27.4012L81.5291 29.5999L81.5364 29.6017L82.0708 27.4012ZM80.8028 26.9597L79.7714 28.9756L80.8028 26.9597ZM80.1234 26.5634L78.09 25.567L77.2731 27.2343L78.7479 28.3622L80.1234 26.5634ZM81.233 24.299L82.6957 22.5704L80.4779 20.6938L79.1996 23.3026L81.233 24.299ZM82.1954 24.8651L81.2245 26.9108L81.2388 26.9176L81.2531 26.9242L82.1954 24.8651ZM84.7315 24.9557L85.8118 26.9458L85.8118 26.9458L84.7315 24.9557ZM84.9353 23.9367L86.4335 22.2388L86.4335 22.2388L84.9353 23.9367ZM84.3918 23.6423L83.6346 25.7764L83.6346 25.7764L84.3918 23.6423ZM83.5427 23.4159L83.9965 21.1974L83.9868 21.1955L83.5427 23.4159ZM82.5803 23.1329L81.7801 25.2511L81.7801 25.2511L82.5803 23.1329ZM81.6179 22.612L80.2593 24.4236L80.274 24.4346L80.2888 24.4453L81.6179 22.612ZM80.882 21.7629L82.8615 20.6632L82.8615 20.6632L80.882 21.7629ZM81.199 18.989L79.583 17.4029L79.583 17.4029L81.199 18.989ZM82.7501 18.0719L83.4431 20.2277L83.4547 20.224L83.4662 20.2201L82.7501 18.0719ZM84.7768 20.0193C85.26 20.0193 85.6606 20.0613 85.9893 20.1299L86.9156 15.6969C86.2328 15.5542 85.5163 15.4905 84.7768 15.4905V20.0193ZM86.0211 20.1364C86.4487 20.2193 86.7385 20.3027 86.9203 20.3714L88.5207 16.1348C88.0232 15.9468 87.4676 15.8038 86.8838 15.6905L86.0211 20.1364ZM86.9355 20.3771C87.002 20.4016 87.0555 20.4225 87.0975 20.4398C87.1401 20.4573 87.1655 20.4688 87.1771 20.4743C87.1824 20.4768 87.1823 20.4769 87.1775 20.4744C87.1728 20.4719 87.161 20.4656 87.1435 20.4553C87.1263 20.4452 87.099 20.4286 87.0648 20.405C87.0312 20.382 86.9827 20.3468 86.9258 20.2987L89.8512 16.8415C89.5724 16.6056 89.2767 16.4578 89.1188 16.3828C88.9247 16.2907 88.7143 16.2062 88.5055 16.1291L86.9355 20.3771ZM86.407 17.4742L85.2861 19.5008L89.2492 21.6927L90.37 19.666L86.407 17.4742ZM88.6109 18.7738C88.2306 18.4935 87.7388 18.2699 87.3461 18.1037L85.5815 22.2746C85.7478 22.3449 85.8623 22.3983 85.9351 22.4352C85.9706 22.4532 85.9876 22.463 85.9902 22.4645C85.9949 22.4673 85.9689 22.4525 85.9244 22.4197L88.6109 18.7738ZM87.3607 18.1099C86.6569 17.8063 85.9157 17.6756 85.1731 17.6756V22.2044C85.3814 22.2044 85.5008 22.2398 85.5669 22.2683L87.3607 18.1099ZM85.1731 17.6756C84.5873 17.6756 83.9413 17.7656 83.319 18.0484L85.193 22.1713C85.1291 22.2004 85.0884 22.2083 85.0844 22.209C85.0822 22.2094 85.0881 22.2082 85.1032 22.207C85.1182 22.2057 85.1412 22.2044 85.1731 22.2044V17.6756ZM83.3716 18.0253C82.9767 18.1928 82.5126 18.4827 82.1497 18.9774C81.7711 19.4937 81.6179 20.0769 81.6179 20.6194H86.1467C86.1467 20.9279 86.0558 21.3092 85.8018 21.6556C85.5635 21.9805 85.2861 22.1326 85.1403 22.1944L83.3716 18.0253ZM81.6179 20.6194C81.6179 21.9606 82.4894 22.7956 83.233 23.1881L85.3469 19.1829C85.425 19.2241 85.6307 19.3478 85.8219 19.6133C86.0333 19.9069 86.1467 20.2647 86.1467 20.6194H81.6179ZM83.2993 23.2217C83.8294 23.4796 84.4442 23.6461 85.0398 23.767L85.9403 19.3286C85.7313 19.2862 85.5715 19.2457 85.4539 19.2102C85.3958 19.1927 85.3527 19.1777 85.3223 19.1663C85.2915 19.1546 85.2789 19.1484 85.2805 19.1492L83.2993 23.2217ZM85.046 23.7682C85.3373 23.8265 85.6533 23.9227 85.9957 24.0662L87.7471 19.8898C87.1535 19.6409 86.5486 19.4502 85.9342 19.3273L85.046 23.7682ZM85.9957 24.0662C86.1261 24.1209 86.2059 24.1855 86.2727 24.2686L89.8023 21.431C89.2502 20.7442 88.5526 20.2276 87.7471 19.8898L85.9957 24.0662ZM86.3037 24.3062C86.2817 24.2801 86.2644 24.2539 86.2518 24.2305C86.2394 24.2074 86.2343 24.1923 86.2334 24.1894C86.232 24.185 86.2486 24.236 86.2486 24.3669H90.7774C90.7774 23.3558 90.5194 22.2838 89.7714 21.3934L86.3037 24.3062ZM86.2486 24.3669C86.2486 24.6962 86.1791 24.7654 86.2049 24.7264L89.9834 27.2229C90.5677 26.3385 90.7774 25.336 90.7774 24.3669H86.2486ZM86.2049 24.7264C86.1462 24.8152 86.0766 24.8811 85.9587 24.941L88.0105 28.9784C88.8134 28.5703 89.4835 27.9795 89.9834 27.2229L86.2049 24.7264ZM85.9587 24.941C85.7128 25.066 85.4347 25.1594 85.1127 25.2138L85.8674 29.6793C86.6172 29.5525 87.3355 29.3214 88.0105 28.9784L85.9587 24.941ZM85.0822 25.2192C84.6706 25.2945 84.2865 25.3293 83.9276 25.3293V29.8581C84.5802 29.8581 85.2377 29.7948 85.8979 29.6739L85.0822 25.2192ZM83.9276 25.3293C83.3468 25.3293 82.9149 25.276 82.6052 25.2008L81.5364 29.6017C82.2834 29.7831 83.0894 29.8581 83.9276 29.8581V25.3293ZM82.6125 25.2026C82.1898 25.0985 81.9489 25.0025 81.8341 24.9438L79.7714 28.9756C80.3058 29.249 80.9102 29.4474 81.5291 29.5999L82.6125 25.2026ZM81.8341 24.9438C81.6958 24.873 81.5969 24.8189 81.5305 24.7801C81.4979 24.7611 81.4789 24.7492 81.4707 24.7439C81.4613 24.7378 81.4731 24.7449 81.499 24.7647L78.7479 28.3622C79.0518 28.5946 79.4378 28.8049 79.7714 28.9756L81.8341 24.9438ZM82.1569 27.5598L83.2664 25.2954L79.1996 23.3026L78.09 25.567L82.1569 27.5598ZM79.7703 26.0276C80.1963 26.3881 80.7325 26.6774 81.2245 26.9108L83.1662 22.8194C82.9859 22.7338 82.8566 22.6649 82.7689 22.6133C82.6749 22.5581 82.6626 22.5424 82.6957 22.5704L79.7703 26.0276ZM81.2531 26.9242C81.9993 27.2656 82.793 27.4352 83.6106 27.4352V22.9064C83.4319 22.9064 83.2821 22.8722 83.1376 22.8061L81.2531 26.9242ZM83.6106 27.4352C84.2658 27.4352 85.0732 27.3467 85.8118 26.9458L83.6512 22.9656C83.7119 22.9326 83.7601 22.914 83.7892 22.9042C83.8181 22.8944 83.8319 22.8922 83.8263 22.8932C83.8209 22.8943 83.8008 22.8977 83.7635 22.9009C83.7264 22.904 83.6759 22.9064 83.6106 22.9064V27.4352ZM85.8118 26.9458C86.5632 26.5379 87.3922 25.6974 87.3922 24.3896H82.8634C82.8634 24.0499 82.9688 23.7007 83.1736 23.4081C83.3605 23.1411 83.5655 23.0121 83.6512 22.9656L85.8118 26.9458ZM87.3922 24.3896C87.3922 23.626 87.1023 22.829 86.4335 22.2388L83.4371 25.6346C83.2591 25.4776 83.1015 25.2697 82.9957 25.0205C82.8921 24.7769 82.8634 24.5542 82.8634 24.3896H87.3922ZM86.4335 22.2388C86.0139 21.8685 85.5431 21.6481 85.1491 21.5083L83.6346 25.7764C83.6626 25.7863 83.6557 25.7861 83.6247 25.7693C83.5942 25.7527 83.5242 25.7115 83.4371 25.6346L86.4335 22.2388ZM85.1491 21.5083C84.7877 21.3801 84.3972 21.2794 83.9965 21.1974L83.0889 25.6344C83.3524 25.6883 83.528 25.7386 83.6346 25.7764L85.1491 21.5083ZM83.9868 21.1955C83.8254 21.1632 83.6244 21.1067 83.3806 21.0146L81.7801 25.2511C82.2155 25.4156 82.6561 25.5478 83.0986 25.6363L83.9868 21.1955ZM83.3806 21.0146C83.2341 20.9593 83.0906 20.8828 82.9471 20.7788L80.2888 24.4453C80.7492 24.7791 81.2472 25.0498 81.7801 25.2511L83.3806 21.0146ZM82.9766 20.8005C82.937 20.7708 82.9003 20.733 82.8615 20.6632L78.9026 22.8626C79.2412 23.4721 79.6951 24.0004 80.2593 24.4236L82.9766 20.8005ZM82.8615 20.6632C82.879 20.6948 82.8805 20.7093 82.8768 20.6934C82.8727 20.6756 82.8634 20.6239 82.8634 20.5288H78.3346C78.3346 21.3043 78.4868 22.1141 78.9026 22.8626L82.8615 20.6632ZM82.8634 20.5288C82.8634 20.4961 82.866 20.4803 82.8663 20.4783C82.8666 20.4768 82.8651 20.4858 82.8588 20.5019C82.8525 20.5182 82.8438 20.5352 82.8337 20.5508C82.8236 20.5661 82.816 20.5742 82.8151 20.5751L79.583 17.4029C78.7306 18.2713 78.3346 19.3713 78.3346 20.5288H82.8634ZM82.8151 20.5751C82.9185 20.4698 83.1002 20.3379 83.4431 20.2277L82.0572 15.9161C81.132 16.2135 80.2797 16.693 79.583 17.4029L82.8151 20.5751ZM83.4662 20.2201C83.8531 20.0912 84.2853 20.0193 84.7768 20.0193V15.4905C83.8341 15.4905 82.9153 15.63 82.0341 15.9237L83.4662 20.2201ZM90.4534 27.322H88.189V29.5864H90.4534V27.322ZM90.4534 18.0266V15.7622H88.189V18.0266H90.4534ZM93.8952 18.0266H96.1596V15.7622H93.8952V18.0266ZM93.8952 27.322V29.5864H96.1596V27.322H93.8952ZM90.8383 15.5471L89.2214 17.1324L89.2292 17.1404L89.2371 17.1483L90.8383 15.5471ZM90.8383 12.8072L89.2217 11.2216L89.2214 11.2219L90.8383 12.8072ZM93.1933 12.4902L92.0065 14.4187L92.0246 14.4298L92.043 14.4406L93.1933 12.4902ZM93.9066 13.1921L91.9781 14.3789L91.9781 14.3789L93.9066 13.1921ZM93.6009 15.5471L95.1861 17.1641L95.1941 17.1562L95.202 17.1483L93.6009 15.5471ZM92.7178 27.322V18.0266H88.189V27.322H92.7178ZM90.4534 20.291H93.8952V15.7622H90.4534V20.291ZM91.6308 18.0266V27.322H96.1596V18.0266H91.6308ZM93.8952 25.0576H90.4534V29.5864H93.8952V25.0576ZM92.2196 13.8488C92.2151 13.8488 92.2589 13.8492 92.3254 13.8764C92.3927 13.904 92.4315 13.9379 92.4395 13.9459L89.2371 17.1483C90.0478 17.9589 91.0879 18.3776 92.2196 18.3776V13.8488ZM92.4552 13.9619C92.4513 13.9578 92.4802 13.9875 92.5065 14.0511C92.5331 14.1156 92.5366 14.1654 92.5366 14.1771H88.0078C88.0078 15.3116 88.4384 16.3337 89.2214 17.1324L92.4552 13.9619ZM92.5366 14.1771C92.5366 14.1889 92.5331 14.2387 92.5065 14.3032C92.4802 14.3668 92.4513 14.3965 92.4552 14.3924L89.2214 11.2219C88.4384 12.0206 88.0078 13.0427 88.0078 14.1771H92.5366ZM92.4549 14.3927C92.46 14.3876 92.4289 14.4194 92.3602 14.4487C92.2903 14.4785 92.2349 14.4828 92.2196 14.4828V9.95404C91.0581 9.95404 90.0201 10.4075 89.2217 11.2216L92.4549 14.3927ZM92.2196 14.4828C92.2021 14.4828 92.1665 14.4803 92.1204 14.4674C92.0739 14.4545 92.0346 14.436 92.0065 14.4187L94.38 10.5617C93.719 10.1549 92.9818 9.95404 92.2196 9.95404V14.4828ZM92.043 14.4406C92.0349 14.4359 92.0201 14.4256 92.0041 14.4098C91.9881 14.3941 91.9798 14.3817 91.9781 14.3789L95.8351 12.0054C95.4629 11.4006 94.9594 10.9029 94.3436 10.5397L92.043 14.4406ZM91.9781 14.3789C91.9584 14.3469 91.9398 14.3061 91.9275 14.2613C91.9153 14.2173 91.9139 14.1865 91.9139 14.1771H96.4427C96.4427 13.4169 96.2467 12.6742 95.8351 12.0054L91.9781 14.3789ZM91.9139 14.1771C91.9139 14.1595 91.9186 14.1045 91.9473 14.0364C91.9755 13.9696 92.0057 13.9399 91.9997 13.9459L95.202 17.1483C95.9972 16.3531 96.4427 15.3262 96.4427 14.1771H91.9139ZM92.0156 13.9302C92.0146 13.9312 92.0457 13.902 92.1081 13.8764C92.1367 13.8647 92.1636 13.8572 92.186 13.853C92.208 13.8488 92.2202 13.8488 92.2196 13.8488V18.3776C93.3522 18.3776 94.3807 17.9537 95.1861 17.1641L92.0156 13.9302ZM102.109 17.9134L101.645 20.1299L101.661 20.1333L101.677 20.1364L102.109 17.9134ZM103.377 18.2531L102.576 20.3714L102.584 20.3742L102.592 20.3771L103.377 18.2531ZM104.045 18.5701L106.026 19.666L106.925 18.041L105.507 16.8415L104.045 18.5701ZM102.924 20.5967L101.581 22.4197L103.657 23.9497L104.905 21.6927L102.924 20.5967ZM102.12 20.1891L101.223 22.2683L101.23 22.2715L101.238 22.2746L102.12 20.1891ZM99.9122 20.1099L100.797 22.1944L100.823 22.1832L100.849 22.1713L99.9122 20.1099ZM99.9461 21.1855L98.8892 23.1881L98.9221 23.2054L98.9555 23.2217L99.9461 21.1855ZM101.146 21.5478L100.696 23.767L100.702 23.7682L101.146 21.5478ZM102.528 21.978L103.403 19.8898L103.403 19.8898L102.528 21.978ZM103.694 22.8498L101.929 24.2686L101.944 24.2876L101.96 24.3062L103.694 22.8498ZM103.75 25.9747L105.64 27.2229L105.64 27.2229L103.75 25.9747ZM102.641 26.9597L101.615 24.941L101.615 24.941L102.641 26.9597ZM101.146 27.4465L100.769 25.2138L100.754 25.2164L100.738 25.2192L101.146 27.4465ZM97.727 27.4012L97.1853 29.5999L97.1926 29.6017L97.727 27.4012ZM96.459 26.9597L95.4276 28.9756L96.459 26.9597ZM95.7796 26.5634L93.7462 25.567L92.9293 27.2343L94.4041 28.3622L95.7796 26.5634ZM96.8892 24.299L98.3519 22.5704L96.1341 20.6938L94.8558 23.3026L96.8892 24.299ZM97.8516 24.8651L96.8807 26.9108L96.895 26.9176L96.9093 26.9242L97.8516 24.8651ZM100.388 24.9557L101.468 26.9458L101.468 26.9458L100.388 24.9557ZM100.591 23.9367L102.09 22.2388L102.09 22.2388L100.591 23.9367ZM100.048 23.6423L99.2908 25.7764L99.2908 25.7764L100.048 23.6423ZM99.1989 23.4159L99.6527 21.1974L99.643 21.1955L99.1989 23.4159ZM98.2365 23.1329L97.4363 25.2511L97.4363 25.2511L98.2365 23.1329ZM97.2742 22.612L95.9155 24.4236L95.9302 24.4346L95.945 24.4453L97.2742 22.612ZM96.5382 21.7629L98.5177 20.6632L98.5177 20.6632L96.5382 21.7629ZM96.8552 18.989L95.2392 17.4029L95.2392 17.4029L96.8552 18.989ZM98.4064 18.0719L99.0993 20.2277L99.1109 20.224L99.1224 20.2201L98.4064 18.0719ZM100.433 20.0193C100.916 20.0193 101.317 20.0613 101.645 20.1299L102.572 15.6969C101.889 15.5542 101.173 15.4905 100.433 15.4905V20.0193ZM101.677 20.1364C102.105 20.2193 102.395 20.3027 102.576 20.3714L104.177 16.1348C103.679 15.9468 103.124 15.8038 102.54 15.6905L101.677 20.1364ZM102.592 20.3771C102.658 20.4016 102.712 20.4225 102.754 20.4398C102.796 20.4573 102.822 20.4688 102.833 20.4743C102.839 20.4768 102.838 20.4769 102.834 20.4744C102.829 20.4719 102.817 20.4656 102.8 20.4553C102.783 20.4452 102.755 20.4286 102.721 20.405C102.687 20.382 102.639 20.3468 102.582 20.2987L105.507 16.8415C105.229 16.6056 104.933 16.4578 104.775 16.3828C104.581 16.2907 104.37 16.2062 104.162 16.1291L102.592 20.3771ZM102.063 17.4742L100.942 19.5008L104.905 21.6927L106.026 19.666L102.063 17.4742ZM104.267 18.7738C103.887 18.4935 103.395 18.2699 103.002 18.1037L101.238 22.2746C101.404 22.3449 101.518 22.3983 101.591 22.4352C101.627 22.4532 101.644 22.463 101.646 22.4645C101.651 22.4673 101.625 22.4525 101.581 22.4197L104.267 18.7738ZM103.017 18.1099C102.313 17.8063 101.572 17.6756 100.829 17.6756V22.2044C101.038 22.2044 101.157 22.2398 101.223 22.2683L103.017 18.1099ZM100.829 17.6756C100.244 17.6756 99.5975 17.7656 98.9752 18.0484L100.849 22.1713C100.785 22.2004 100.745 22.2083 100.741 22.209C100.738 22.2094 100.744 22.2082 100.759 22.207C100.774 22.2057 100.797 22.2044 100.829 22.2044V17.6756ZM99.0278 18.0253C98.6329 18.1928 98.1688 18.4827 97.8059 18.9774C97.4274 19.4937 97.2742 20.0769 97.2742 20.6194H101.803C101.803 20.9279 101.712 21.3092 101.458 21.6556C101.22 21.9805 100.942 22.1326 100.797 22.1944L99.0278 18.0253ZM97.2742 20.6194C97.2742 21.9606 98.1456 22.7956 98.8892 23.1881L101.003 19.1829C101.081 19.2241 101.287 19.3478 101.478 19.6133C101.69 19.9069 101.803 20.2647 101.803 20.6194H97.2742ZM98.9555 23.2217C99.4857 23.4796 100.1 23.6461 100.696 23.767L101.597 19.3286C101.387 19.2862 101.228 19.2457 101.11 19.2102C101.052 19.1927 101.009 19.1777 100.978 19.1663C100.948 19.1546 100.935 19.1484 100.937 19.1492L98.9555 23.2217ZM100.702 23.7682C100.993 23.8265 101.309 23.9227 101.652 24.0662L103.403 19.8898C102.81 19.6409 102.205 19.4502 101.59 19.3273L100.702 23.7682ZM101.652 24.0662C101.782 24.1209 101.862 24.1855 101.929 24.2686L105.459 21.431C104.906 20.7442 104.209 20.2276 103.403 19.8898L101.652 24.0662ZM101.96 24.3062C101.938 24.2801 101.921 24.2539 101.908 24.2305C101.896 24.2074 101.891 24.1923 101.89 24.1894C101.888 24.185 101.905 24.236 101.905 24.3669H106.434C106.434 23.3558 106.176 22.2838 105.428 21.3934L101.96 24.3062ZM101.905 24.3669C101.905 24.6962 101.835 24.7654 101.861 24.7264L105.64 27.2229C106.224 26.3385 106.434 25.336 106.434 24.3669H101.905ZM101.861 24.7264C101.802 24.8152 101.733 24.8811 101.615 24.941L103.667 28.9784C104.47 28.5703 105.14 27.9795 105.64 27.2229L101.861 24.7264ZM101.615 24.941C101.369 25.066 101.091 25.1594 100.769 25.2138L101.524 29.6793C102.273 29.5525 102.992 29.3214 103.667 28.9784L101.615 24.941ZM100.738 25.2192C100.327 25.2945 99.9427 25.3293 99.5838 25.3293V29.8581C100.236 29.8581 100.894 29.7948 101.554 29.6739L100.738 25.2192ZM99.5838 25.3293C99.003 25.3293 98.5711 25.276 98.2614 25.2008L97.1926 29.6017C97.9396 29.7831 98.7456 29.8581 99.5838 29.8581V25.3293ZM98.2687 25.2026C97.846 25.0985 97.6051 25.0025 97.4903 24.9438L95.4276 28.9756C95.962 29.249 96.5664 29.4474 97.1853 29.5999L98.2687 25.2026ZM97.4903 24.9438C97.352 24.873 97.2531 24.8189 97.1867 24.7801C97.1541 24.7611 97.1351 24.7492 97.1269 24.7439C97.1175 24.7378 97.1294 24.7449 97.1552 24.7647L94.4041 28.3622C94.708 28.5946 95.094 28.8049 95.4276 28.9756L97.4903 24.9438ZM97.8131 27.5598L98.9226 25.2954L94.8558 23.3026L93.7462 25.567L97.8131 27.5598ZM95.4265 26.0276C95.8525 26.3881 96.3888 26.6774 96.8807 26.9108L98.8224 22.8194C98.6421 22.7338 98.5128 22.6649 98.4251 22.6133C98.3311 22.5581 98.3188 22.5424 98.3519 22.5704L95.4265 26.0276ZM96.9093 26.9242C97.6555 27.2656 98.4492 27.4352 99.2668 27.4352V22.9064C99.0881 22.9064 98.9383 22.8722 98.7938 22.8061L96.9093 26.9242ZM99.2668 27.4352C99.922 27.4352 100.729 27.3467 101.468 26.9458L99.3074 22.9656C99.3681 22.9326 99.4163 22.914 99.4454 22.9042C99.4743 22.8944 99.4881 22.8922 99.4826 22.8932C99.4771 22.8943 99.457 22.8977 99.4197 22.9009C99.3826 22.904 99.3321 22.9064 99.2668 22.9064V27.4352ZM101.468 26.9458C102.219 26.5379 103.048 25.6974 103.048 24.3896H98.5196C98.5196 24.0499 98.625 23.7007 98.8298 23.4081C99.0167 23.1411 99.2217 23.0121 99.3074 22.9656L101.468 26.9458ZM103.048 24.3896C103.048 23.626 102.759 22.829 102.09 22.2388L99.0933 25.6346C98.9153 25.4776 98.7577 25.2697 98.6519 25.0205C98.5483 24.7769 98.5196 24.5542 98.5196 24.3896H103.048ZM102.09 22.2388C101.67 21.8685 101.199 21.6481 100.805 21.5083L99.2908 25.7764C99.3188 25.7863 99.3119 25.7861 99.2809 25.7693C99.2504 25.7527 99.1804 25.7115 99.0933 25.6346L102.09 22.2388ZM100.805 21.5083C100.444 21.3801 100.053 21.2794 99.6527 21.1974L98.7451 25.6344C99.0086 25.6883 99.1842 25.7386 99.2908 25.7764L100.805 21.5083ZM99.643 21.1955C99.4816 21.1632 99.2806 21.1067 99.0368 21.0146L97.4363 25.2511C97.8717 25.4156 98.3123 25.5478 98.7548 25.6363L99.643 21.1955ZM99.0368 21.0146C98.8903 20.9593 98.7468 20.8828 98.6033 20.7788L95.945 24.4453C96.4054 24.7791 96.9034 25.0498 97.4363 25.2511L99.0368 21.0146ZM98.6328 20.8005C98.5932 20.7708 98.5565 20.733 98.5177 20.6632L94.5588 22.8626C94.8974 23.4721 95.3513 24.0004 95.9155 24.4236L98.6328 20.8005ZM98.5177 20.6632C98.5352 20.6948 98.5367 20.7093 98.533 20.6934C98.5289 20.6756 98.5196 20.6239 98.5196 20.5288H93.9908C93.9908 21.3043 94.143 22.1141 94.5588 22.8626L98.5177 20.6632ZM98.5196 20.5288C98.5196 20.4961 98.5222 20.4803 98.5225 20.4783C98.5228 20.4768 98.5213 20.4858 98.515 20.5019C98.5087 20.5182 98.5 20.5352 98.4899 20.5508C98.4798 20.5661 98.4722 20.5742 98.4713 20.5751L95.2392 17.4029C94.3868 18.2713 93.9908 19.3713 93.9908 20.5288H98.5196ZM98.4713 20.5751C98.5747 20.4698 98.7564 20.3379 99.0993 20.2277L97.7134 15.9161C96.7882 16.2135 95.9359 16.693 95.2392 17.4029L98.4713 20.5751ZM99.1224 20.2201C99.5093 20.0912 99.9415 20.0193 100.433 20.0193V15.4905C99.4903 15.4905 98.5715 15.63 97.6903 15.9237L99.1224 20.2201ZM105.049 18.0266V15.7622H102.785V18.0266H105.049ZM106.634 18.0266V20.291H108.898V18.0266H106.634ZM106.634 14.2111V11.9467H104.37V14.2111H106.634ZM110.042 14.2111H112.306V11.9467H110.042V14.2111ZM110.042 18.0266H107.778V20.291H110.042V18.0266ZM112.125 18.0266H114.39V15.7622H112.125V18.0266ZM112.125 20.8571V23.1215H114.39V20.8571H112.125ZM110.042 20.8571V18.5927H107.778V20.8571H110.042ZM110.212 24.3896L108.162 25.3507L108.167 25.3633L108.174 25.3759L110.212 24.3896ZM111.616 24.4236L113.656 23.4412L112.271 20.5656L110.015 22.8224L111.616 24.4236ZM112.793 26.8691L114.267 28.5884L115.589 27.4554L114.833 25.8868L112.793 26.8691ZM112.295 27.1182L111.396 25.0398L111.386 25.0443L111.375 25.049L112.295 27.1182ZM111.253 27.4465L111.766 29.6523L111.766 29.6523L111.253 27.4465ZM107.54 26.8125L106.049 28.5166L106.055 28.5219L106.061 28.5272L107.54 26.8125ZM106.634 20.8571H108.898V18.5927H106.634V20.8571ZM105.049 20.8571H102.785V23.1215H105.049V20.8571ZM105.049 20.291H106.634V15.7622H105.049V20.291ZM108.898 18.0266V14.2111H104.37V18.0266H108.898ZM106.634 16.4755H110.042V11.9467H106.634V16.4755ZM107.778 14.2111V18.0266H112.306V14.2111H107.778ZM110.042 20.291H112.125V15.7622H110.042V20.291ZM109.861 18.0266V20.8571H114.39V18.0266H109.861ZM112.125 18.5927H110.042V23.1215H112.125V18.5927ZM107.778 20.8571V23.4499H112.306V20.8571H107.778ZM107.778 23.4499C107.778 24.0308 107.859 24.7056 108.162 25.3507L112.262 23.4285C112.283 23.4727 112.295 23.5083 112.303 23.5322C112.31 23.556 112.313 23.5696 112.313 23.5708C112.313 23.572 112.311 23.563 112.31 23.5421C112.308 23.5214 112.306 23.4909 112.306 23.4499H107.778ZM108.174 25.3759C108.412 25.8688 108.798 26.3196 109.341 26.6255C109.863 26.9198 110.396 27.005 110.835 27.005V22.4762C110.971 22.4762 111.25 22.5028 111.564 22.6802C111.899 22.8691 112.125 23.1444 112.25 23.4033L108.174 25.3759ZM110.835 27.005C111.379 27.005 111.992 26.8808 112.565 26.5192L110.146 22.6902C110.432 22.5098 110.697 22.4762 110.835 22.4762V27.005ZM112.565 26.5192C112.65 26.4653 112.739 26.4076 112.821 26.3503C112.861 26.3228 113.043 26.1985 113.217 26.0247L110.015 22.8224C110.066 22.7711 110.109 22.7334 110.134 22.7119C110.161 22.6889 110.183 22.6717 110.196 22.6613C110.21 22.6506 110.221 22.643 110.226 22.639C110.229 22.6368 110.231 22.6352 110.233 22.6342C110.234 22.6332 110.235 22.6327 110.235 22.6326C110.235 22.6326 110.233 22.634 110.229 22.6369C110.224 22.6398 110.218 22.6437 110.211 22.6488C110.195 22.6593 110.174 22.6729 110.146 22.6902L112.565 26.5192ZM109.576 25.4059L110.753 27.8514L114.833 25.8868L113.656 23.4412L109.576 25.4059ZM111.32 25.1499C111.362 25.1138 111.399 25.0849 111.427 25.0635C111.457 25.0417 111.482 25.024 111.502 25.0105C111.541 24.9843 111.571 24.9661 111.587 24.9567C111.604 24.9466 111.616 24.9405 111.619 24.9387C111.623 24.9367 111.622 24.9371 111.616 24.94C111.604 24.9461 111.58 24.9578 111.541 24.9757C111.503 24.9932 111.455 25.0145 111.396 25.0398L113.194 29.1966C113.351 29.1286 113.505 29.0589 113.642 28.9907C113.704 28.9597 114 28.817 114.267 28.5884L111.32 25.1499ZM111.375 25.049C111.28 25.0915 111.082 25.1618 110.741 25.2408L111.766 29.6523C112.271 29.535 112.767 29.3864 113.215 29.1874L111.375 25.049ZM110.741 25.2408C110.516 25.2931 110.22 25.3293 109.838 25.3293V29.8581C110.498 29.8581 111.145 29.7962 111.766 29.6523L110.741 25.2408ZM109.838 25.3293C109.358 25.3293 109.145 25.2069 109.019 25.0978L106.061 28.5272C107.142 29.4597 108.461 29.8581 109.838 29.8581V25.3293ZM109.031 25.1084C109.028 25.1054 109.025 25.1024 109.019 25.0949C109.014 25.0867 109 25.064 108.983 25.018C108.947 24.9218 108.898 24.7241 108.898 24.3783H104.37C104.37 25.8768 104.793 27.4178 106.049 28.5166L109.031 25.1084ZM108.898 24.3783V20.8571H104.37V24.3783H108.898ZM106.634 18.5927H105.049V23.1215H106.634V18.5927ZM107.313 20.8571V18.0266H102.785V20.8571H107.313ZM121.28 27.322H119.015V29.5864H121.28V27.322ZM121.28 25.8162H123.544L119.215 24.8869L121.28 25.8162ZM120.759 26.4728L119.137 24.8932L119.126 24.9043L119.115 24.9155L120.759 26.4728ZM119.672 27.2541L120.685 29.2794L120.698 29.2727L120.711 29.2658L119.672 27.2541ZM115.709 26.937L114.468 28.8308L114.475 28.8356L114.483 28.8404L115.709 26.937ZM114.124 25.1595L112.103 26.1803L112.107 26.1886L114.124 25.1595ZM114.124 20.2118L116.141 21.2409L116.146 21.2326L114.124 20.2118ZM115.709 18.4229L116.951 20.3166L116.951 20.3166L115.709 18.4229ZM119.615 18.0379L118.719 20.1174L118.734 20.124L118.75 20.1303L119.615 18.0379ZM120.68 18.6946L119.125 20.3409L119.137 20.3524L119.15 20.3638L120.68 18.6946ZM121.246 19.3853L119.22 20.3979L123.51 19.3853H121.246ZM121.246 18.0266V15.7622H118.981V18.0266H121.246ZM124.665 18.0266H126.929V15.7622H124.665V18.0266ZM124.665 27.322V29.5864H126.929V27.322H124.665ZM117.227 23.8235L115.266 24.9563L115.271 24.9659L115.277 24.9755L117.227 23.8235ZM118.008 24.6047L116.87 26.5623L116.879 26.568L116.889 26.5735L118.008 24.6047ZM120.951 23.8235L118.972 22.7238L118.968 22.7315L118.964 22.7392L120.951 23.8235ZM120.951 21.5478L118.953 22.6134L118.968 22.6401L118.983 22.6664L120.951 21.5478ZM120.204 20.7552L119.012 22.6806L119.029 22.6909L119.046 22.701L120.204 20.7552ZM118.008 20.7552L119.146 22.7128L119.153 22.7088L119.16 22.7047L118.008 20.7552ZM117.227 21.5478L119.176 22.6997L119.182 22.6902L119.187 22.6806L117.227 21.5478ZM123.544 27.322V25.8162H119.015V27.322H123.544ZM119.215 24.8869C119.238 24.8356 119.259 24.7952 119.275 24.7669C119.291 24.7382 119.305 24.717 119.313 24.704C119.329 24.6792 119.335 24.6727 119.324 24.6865C119.314 24.6993 119.294 24.7234 119.262 24.7598C119.229 24.7959 119.188 24.8401 119.137 24.8932L122.381 28.0525C122.657 27.7699 123.096 27.2991 123.345 26.7454L119.215 24.8869ZM119.115 24.9155C119.06 24.9734 118.922 25.0928 118.633 25.2423L120.711 29.2658C121.328 28.9474 121.914 28.5459 122.403 28.0302L119.115 24.9155ZM118.659 25.2287C118.576 25.2705 118.406 25.3293 118.087 25.3293V29.8581C118.975 29.8581 119.862 29.6905 120.685 29.2794L118.659 25.2287ZM118.087 25.3293C117.562 25.3293 117.207 25.208 116.936 25.0337L114.483 28.8404C115.571 29.5416 116.8 29.8581 118.087 29.8581V25.3293ZM116.951 25.0433C116.608 24.8188 116.344 24.5275 116.141 24.1304L112.107 26.1886C112.659 27.2708 113.452 28.1646 114.468 28.8308L116.951 25.0433ZM116.146 24.1387C115.941 23.7334 115.823 23.2608 115.823 22.68H111.294C111.294 23.9107 111.553 25.0911 112.103 26.1803L116.146 24.1387ZM115.823 22.68C115.823 22.0989 115.941 21.6337 116.141 21.2409L112.107 19.1827C111.553 20.2693 111.294 21.4495 111.294 22.68H115.823ZM116.146 21.2326C116.35 20.8283 116.614 20.5375 116.951 20.3166L114.468 16.5291C113.446 17.1989 112.654 18.1007 112.103 19.1909L116.146 21.2326ZM116.951 20.3166C117.22 20.1404 117.57 20.0193 118.087 20.0193V15.4905C116.793 15.4905 115.558 15.8147 114.468 16.5291L116.951 20.3166ZM118.087 20.0193C118.426 20.0193 118.619 20.0743 118.719 20.1174L120.512 15.9585C119.736 15.6242 118.911 15.4905 118.087 15.4905V20.0193ZM118.75 20.1303C118.998 20.233 119.099 20.3168 119.125 20.3409L122.235 17.0484C121.717 16.5592 121.109 16.2052 120.481 15.9456L118.75 20.1303ZM119.15 20.3638C119.186 20.3972 119.214 20.4248 119.235 20.4466C119.256 20.4685 119.268 20.4829 119.274 20.4896C119.279 20.4964 119.276 20.493 119.267 20.4793C119.258 20.4657 119.241 20.4386 119.22 20.3979L123.271 18.3726C122.993 17.8153 122.584 17.3684 122.21 17.0254L119.15 20.3638ZM123.51 19.3853V18.0266H118.981V19.3853H123.51ZM121.246 20.291H124.665V15.7622H121.246V20.291ZM122.401 18.0266V27.322H126.929V18.0266H122.401ZM124.665 25.0576H121.28V29.5864H124.665V25.0576ZM114.668 22.68C114.668 23.4685 114.855 24.2457 115.266 24.9563L119.187 22.6907C119.189 22.6941 119.192 22.699 119.194 22.7049C119.196 22.7107 119.198 22.7155 119.199 22.7184C119.199 22.7212 119.199 22.7203 119.198 22.7148C119.198 22.7093 119.197 22.6979 119.197 22.68H114.668ZM115.277 24.9755C115.665 25.6315 116.201 26.1734 116.87 26.5623L119.146 22.6471C119.147 22.6477 119.15 22.6498 119.155 22.6536C119.16 22.6575 119.165 22.662 119.17 22.6667C119.175 22.6714 119.178 22.6751 119.179 22.6768C119.181 22.6785 119.179 22.6771 119.176 22.6715L115.277 24.9755ZM116.889 26.5735C117.579 26.9653 118.333 27.1522 119.106 27.1522V22.6234C119.095 22.6234 119.09 22.6227 119.089 22.6226C119.088 22.6226 119.091 22.6229 119.097 22.6243C119.102 22.6256 119.108 22.6276 119.114 22.63C119.12 22.6325 119.124 22.6347 119.126 22.6359L116.889 26.5735ZM119.106 27.1522C119.877 27.1522 120.653 26.9729 121.362 26.5505L119.046 22.6589C119.06 22.6503 119.076 22.6428 119.09 22.6366C119.105 22.6305 119.118 22.6266 119.127 22.6243C119.145 22.6195 119.141 22.6234 119.106 22.6234V27.1522ZM121.362 26.5505C122.037 26.1487 122.569 25.5867 122.939 24.9078L118.964 22.7392C118.963 22.7397 118.965 22.7358 118.971 22.7287C118.976 22.7215 118.983 22.7125 118.992 22.7027C119.013 22.6815 119.033 22.6667 119.046 22.6589L121.362 26.5505ZM122.931 24.9232C123.323 24.218 123.499 23.4528 123.499 22.68H118.97C118.97 22.7013 118.969 22.7161 118.968 22.7252C118.967 22.7342 118.966 22.7385 118.966 22.7388C118.966 22.739 118.966 22.737 118.968 22.7333C118.969 22.7297 118.971 22.7263 118.972 22.7238L122.931 24.9232ZM123.499 22.68C123.499 21.9079 123.323 21.1376 122.92 20.4291L118.983 22.6664C118.979 22.6594 118.975 22.6519 118.972 22.6444C118.969 22.6369 118.968 22.6315 118.967 22.6291C118.966 22.6267 118.967 22.6289 118.968 22.6366C118.969 22.6444 118.97 22.6586 118.97 22.68H123.499ZM122.949 20.4822C122.583 19.7946 122.05 19.2188 121.362 18.8094L119.046 22.701C119.027 22.6897 119.003 22.6715 118.981 22.6483C118.96 22.6255 118.952 22.6103 118.953 22.6134L122.949 20.4822ZM121.396 18.8299C120.681 18.3874 119.893 18.1965 119.106 18.1965V22.7253C119.134 22.7253 119.131 22.7284 119.106 22.7216C119.079 22.7144 119.045 22.7008 119.012 22.6806L121.396 18.8299ZM119.106 18.1965C118.316 18.1965 117.55 18.3955 116.856 18.8057L119.16 22.7047C119.157 22.7065 119.151 22.7095 119.143 22.713C119.135 22.7164 119.126 22.7194 119.118 22.7216C119.099 22.7266 119.093 22.7253 119.106 22.7253V18.1965ZM116.87 18.7976C116.188 19.1939 115.65 19.7493 115.266 20.4149L119.187 22.6806C119.195 22.6676 119.194 22.6721 119.182 22.6845C119.176 22.6902 119.17 22.696 119.163 22.7014C119.156 22.7068 119.15 22.7106 119.146 22.7128L116.87 18.7976ZM115.277 20.3958C114.855 21.1097 114.668 21.892 114.668 22.68H119.197C119.197 22.662 119.198 22.6513 119.198 22.6471C119.199 22.6429 119.199 22.6442 119.197 22.6497C119.196 22.6553 119.193 22.6634 119.189 22.6731C119.185 22.6828 119.181 22.6919 119.176 22.6997L115.277 20.3958ZM135.148 18.1512L136.037 16.0685L136.037 16.0685L135.148 18.1512ZM136.677 19.4079L134.819 20.7032L134.827 20.7147L136.677 19.4079ZM137.277 27.322V29.5864H139.541V27.322H137.277ZM133.824 27.322H131.559V29.5864H133.824V27.322ZM133.348 20.7213L131.693 22.2663L131.701 22.2756L131.71 22.2848L133.348 20.7213ZM131.14 20.4835L132.29 22.434L132.298 22.4296L132.305 22.4252L131.14 20.4835ZM130.416 21.2308L128.458 20.0926L128.454 20.0999L128.45 20.1073L130.416 21.2308ZM130.144 27.322V29.5864H132.408V27.322H130.144ZM126.702 27.322H124.438V29.5864H126.702V27.322ZM126.702 18.0266V15.7622H124.438V18.0266H126.702ZM130.144 18.0266H132.408V15.7622H130.144V18.0266ZM130.144 19.3966H127.879L132.272 20.1704L130.144 19.3966ZM130.71 18.6493L132.195 20.359L132.198 20.3562L130.71 18.6493ZM131.808 18.0153L132.611 20.1325L132.621 20.1288L132.631 20.1251L131.808 18.0153ZM133.246 20.0193C133.578 20.0193 133.911 20.0851 134.259 20.2338L136.037 16.0685C135.148 15.6889 134.212 15.4905 133.246 15.4905V20.0193ZM134.259 20.2338C134.472 20.3247 134.652 20.4632 134.819 20.7032L138.534 18.1126C137.901 17.2054 137.062 16.506 136.037 16.0685L134.259 20.2338ZM134.827 20.7147C134.879 20.7881 135.012 21.0329 135.012 21.6497H139.541C139.541 20.4096 139.274 19.1599 138.526 18.1011L134.827 20.7147ZM135.012 21.6497V27.322H139.541V21.6497H135.012ZM137.277 25.0576H133.824V29.5864H137.277V25.0576ZM136.088 27.322V22.2158H131.559V27.322H136.088ZM136.088 22.2158C136.088 21.2281 135.854 20.0671 134.986 19.1578L131.71 22.2848C131.658 22.2301 131.619 22.1751 131.591 22.1269C131.564 22.0795 131.551 22.0447 131.547 22.0305C131.539 22.007 131.559 22.0568 131.559 22.2158H136.088ZM135.003 19.1762C134.211 18.327 133.171 17.9474 132.103 17.9474V22.4762C132.107 22.4762 132.042 22.4763 131.941 22.435C131.835 22.3916 131.749 22.3267 131.693 22.2663L135.003 19.1762ZM132.103 17.9474C131.337 17.9474 130.616 18.1576 129.975 18.5418L132.305 22.4252C132.294 22.432 132.266 22.4467 132.223 22.4589C132.179 22.4712 132.137 22.4762 132.103 22.4762V17.9474ZM129.99 18.533C129.329 18.9228 128.822 19.4665 128.458 20.0926L132.373 22.3689C132.383 22.3527 132.381 22.359 132.364 22.3769C132.346 22.3955 132.32 22.4163 132.29 22.434L129.99 18.533ZM128.45 20.1073C128.047 20.8111 127.879 21.5747 127.879 22.329H132.408C132.408 22.2865 132.413 22.2752 132.41 22.2869C132.409 22.2926 132.406 22.3022 132.401 22.3147C132.396 22.3272 132.389 22.3407 132.382 22.3542L128.45 20.1073ZM127.879 22.329V27.322H132.408V22.329H127.879ZM130.144 25.0576H126.702V29.5864H130.144V25.0576ZM128.966 27.322V18.0266H124.438V27.322H128.966ZM126.702 20.291H130.144V15.7622H126.702V20.291ZM127.879 18.0266V19.3966H132.408V18.0266H127.879ZM132.272 20.1704C132.227 20.2929 132.177 20.3657 132.158 20.3903C132.14 20.414 132.145 20.402 132.195 20.359L129.225 16.9396C128.766 17.3384 128.283 17.8891 128.016 18.6227L132.272 20.1704ZM132.198 20.3562C132.254 20.307 132.376 20.2219 132.611 20.1325L131.005 15.8981C130.365 16.1409 129.754 16.4784 129.222 16.9425L132.198 20.3562ZM132.631 20.1251C132.795 20.061 132.993 20.0193 133.246 20.0193V15.4905C132.472 15.4905 131.712 15.6224 130.986 15.9055L132.631 20.1251ZM138.484 18.0266V15.7622H136.22V18.0266H138.484ZM140.069 18.0266V20.291H142.334V18.0266H140.069ZM140.069 14.2111V11.9467H137.805V14.2111H140.069ZM143.477 14.2111H145.742V11.9467H143.477V14.2111ZM143.477 18.0266H141.213V20.291H143.477V18.0266ZM145.561 18.0266H147.825V15.7622H145.561V18.0266ZM145.561 20.8571V23.1215H147.825V20.8571H145.561ZM143.477 20.8571V18.5927H141.213V20.8571H143.477ZM143.647 24.3896L141.597 25.3507L141.603 25.3633L141.609 25.3759L143.647 24.3896ZM145.051 24.4236L147.091 23.4412L145.707 20.5656L143.45 22.8224L145.051 24.4236ZM146.229 26.8691L147.702 28.5884L149.024 27.4554L148.269 25.8868L146.229 26.8691ZM145.73 27.1182L144.832 25.0398L144.821 25.0443L144.811 25.049L145.73 27.1182ZM144.689 27.4465L145.201 29.6523L145.201 29.6523L144.689 27.4465ZM140.975 26.8125L139.484 28.5166L139.49 28.5219L139.496 28.5272L140.975 26.8125ZM140.069 20.8571H142.334V18.5927H140.069V20.8571ZM138.484 20.8571H136.22V23.1215H138.484V20.8571ZM138.484 20.291H140.069V15.7622H138.484V20.291ZM142.334 18.0266V14.2111H137.805V18.0266H142.334ZM140.069 16.4755H143.477V11.9467H140.069V16.4755ZM141.213 14.2111V18.0266H145.742V14.2111H141.213ZM143.477 20.291H145.561V15.7622H143.477V20.291ZM143.296 18.0266V20.8571H147.825V18.0266H143.296ZM145.561 18.5927H143.477V23.1215H145.561V18.5927ZM141.213 20.8571V23.4499H145.742V20.8571H141.213ZM141.213 23.4499C141.213 24.0308 141.294 24.7056 141.597 25.3507L145.697 23.4285C145.718 23.4727 145.731 23.5083 145.738 23.5322C145.745 23.556 145.748 23.5696 145.748 23.5708C145.748 23.572 145.747 23.563 145.745 23.5421C145.743 23.5214 145.742 23.4909 145.742 23.4499H141.213ZM141.609 25.3759C141.847 25.8688 142.233 26.3196 142.776 26.6255C143.298 26.9198 143.831 27.005 144.27 27.005V22.4762C144.406 22.4762 144.685 22.5028 145 22.6802C145.335 22.8691 145.56 23.1444 145.685 23.4033L141.609 25.3759ZM144.27 27.005C144.815 27.005 145.427 26.8808 146 26.5192L143.581 22.6902C143.867 22.5098 144.133 22.4762 144.27 22.4762V27.005ZM146 26.5192C146.085 26.4653 146.174 26.4076 146.256 26.3503C146.296 26.3228 146.478 26.1985 146.652 26.0247L143.45 22.8224C143.501 22.7711 143.544 22.7334 143.569 22.7119C143.597 22.6889 143.618 22.6717 143.632 22.6613C143.645 22.6506 143.656 22.643 143.661 22.639C143.664 22.6368 143.667 22.6352 143.668 22.6342C143.669 22.6332 143.67 22.6327 143.67 22.6326C143.67 22.6326 143.668 22.634 143.664 22.6369C143.66 22.6398 143.654 22.6437 143.646 22.6488C143.63 22.6593 143.609 22.6729 143.581 22.6902L146 26.5192ZM143.011 25.4059L144.188 27.8514L148.269 25.8868L147.091 23.4412L143.011 25.4059ZM144.755 25.1499C144.797 25.1138 144.834 25.0849 144.863 25.0635C144.892 25.0417 144.917 25.024 144.937 25.0105C144.976 24.9843 145.006 24.9661 145.023 24.9567C145.04 24.9466 145.051 24.9405 145.054 24.9387C145.058 24.9367 145.057 24.9371 145.052 24.94C145.039 24.9461 145.015 24.9578 144.976 24.9757C144.938 24.9932 144.89 25.0145 144.832 25.0398L146.629 29.1966C146.786 29.1286 146.941 29.0589 147.077 28.9907C147.139 28.9597 147.435 28.817 147.702 28.5884L144.755 25.1499ZM144.811 25.049C144.715 25.0915 144.517 25.1618 144.177 25.2408L145.201 29.6523C145.706 29.535 146.202 29.3864 146.65 29.1874L144.811 25.049ZM144.177 25.2408C143.951 25.2931 143.655 25.3293 143.273 25.3293V29.8581C143.934 29.8581 144.581 29.7962 145.201 29.6523L144.177 25.2408ZM143.273 25.3293C142.794 25.3293 142.581 25.2069 142.454 25.0978L139.496 28.5272C140.577 29.4597 141.896 29.8581 143.273 29.8581V25.3293ZM142.466 25.1084C142.463 25.1054 142.46 25.1024 142.455 25.0949C142.449 25.0867 142.435 25.064 142.418 25.018C142.382 24.9218 142.334 24.7241 142.334 24.3783H137.805C137.805 25.8768 138.228 27.4178 139.484 28.5166L142.466 25.1084ZM142.334 24.3783V20.8571H137.805V24.3783H142.334ZM140.069 18.5927H138.484V23.1215H140.069V18.5927ZM140.749 20.8571V18.0266H136.22V20.8571H140.749ZM158.33 12.3769V10.1125H156.791L156.224 11.5442L158.33 12.3769ZM161.693 12.3769L163.799 11.5456L163.233 10.1125H161.693V12.3769ZM167.592 27.322V29.5864H170.92L169.698 26.4907L167.592 27.322ZM163.98 27.322L161.851 28.0933L162.392 29.5864H163.98V27.322ZM162.893 24.3217L165.022 23.5504L164.481 22.0573H162.893V24.3217ZM157.141 24.3217V22.0573H155.559L155.015 23.5433L157.141 24.3217ZM156.043 27.322V29.5864H157.626L158.17 28.1003L156.043 27.322ZM152.42 27.322L150.314 26.4893L149.09 29.5864H152.42V27.322ZM158.274 21.3553L156.139 20.6009L155.072 23.6197H158.274V21.3553ZM161.772 21.3553V23.6197H164.974L163.907 20.6009L161.772 21.3553ZM160.04 16.4529L162.175 15.6985L161.641 14.1885H160.04V16.4529ZM160.006 16.4529V14.1885H158.404L157.871 15.6985L160.006 16.4529ZM158.33 14.6413H161.693V10.1125H158.33V14.6413ZM159.587 13.2083L165.485 28.1533L169.698 26.4907L163.799 11.5456L159.587 13.2083ZM167.592 25.0576H163.98V29.5864H167.592V25.0576ZM166.109 26.5507L165.022 23.5504L160.764 25.0929L161.851 28.0933L166.109 26.5507ZM162.893 22.0573H157.141V26.5861H162.893V22.0573ZM155.015 23.5433L153.917 26.5436L158.17 28.1003L159.268 25.1L155.015 23.5433ZM156.043 25.0576H152.42V29.5864H156.043V25.0576ZM154.526 28.1547L160.436 13.2097L156.224 11.5442L150.314 26.4893L154.526 28.1547ZM158.274 23.6197H161.772V19.0909H158.274V23.6197ZM163.907 20.6009L162.175 15.6985L157.905 17.2073L159.637 22.1097L163.907 20.6009ZM160.04 14.1885H160.006V18.7173H160.04V14.1885ZM157.871 15.6985L156.139 20.6009L160.409 22.1097L162.141 17.2073L157.871 15.6985ZM168.911 12.3769V10.1125H166.647V12.3769H168.911ZM172.297 12.3769H174.561V10.1125H172.297V12.3769ZM172.297 27.322V29.5864H174.561V27.322H172.297ZM168.911 27.322H166.647V29.5864H168.911V27.322ZM168.911 14.6413H172.297V10.1125H168.911V14.6413ZM170.032 12.3769V27.322H174.561V12.3769H170.032ZM172.297 25.0576H168.911V29.5864H172.297V25.0576ZM171.176 27.322V12.3769H166.647V27.322H171.176Z" fill="#563BD9" mask="url(#path-1-outside-1_1_2)"/>
<path d="M181.975 4.66187C182.124 4.28635 182.198 4.0986 182.326 4.0986C182.454 4.0986 182.529 4.28635 182.677 4.66187L183.871 7.68138C183.9 7.7565 183.915 7.79406 183.943 7.82176C183.971 7.84947 184.008 7.86426 184.083 7.89383L187.108 9.0838C187.485 9.23224 187.673 9.30646 187.673 9.43499C187.673 9.56352 187.485 9.63774 187.108 9.78618L184.083 10.9761C184.008 11.0057 183.971 11.0205 183.943 11.0482C183.915 11.0759 183.9 11.1135 183.871 11.1886L182.677 14.2081C182.529 14.5836 182.454 14.7714 182.326 14.7714C182.198 14.7714 182.124 14.5836 181.975 14.2081L180.782 11.1886C180.752 11.1135 180.737 11.0759 180.709 11.0482C180.681 11.0205 180.644 11.0057 180.569 10.9761L177.545 9.78618C177.167 9.63774 176.979 9.56352 176.979 9.43499C176.979 9.30646 177.167 9.23224 177.545 9.0838L180.569 7.89383C180.644 7.86426 180.681 7.84947 180.709 7.82176C180.737 7.79406 180.752 7.7565 180.782 7.68138L181.975 4.66187Z" fill="#563BD9"/>
<path d="M180.084 0.887881C180.232 0.512366 180.306 0.324609 180.435 0.324609C180.563 0.324609 180.637 0.512366 180.786 0.887881L180.909 1.20084C180.939 1.27596 180.954 1.31352 180.982 1.34123C181.01 1.36893 181.047 1.38372 181.122 1.41329L181.434 1.53581C181.811 1.68425 181.999 1.75847 181.999 1.887C181.999 2.01553 181.811 2.08975 181.434 2.23819L181.122 2.36071C181.047 2.39028 181.01 2.40507 180.982 2.43277C180.954 2.46048 180.939 2.49804 180.909 2.57316L180.786 2.88612C180.637 3.26163 180.563 3.44939 180.435 3.44939C180.306 3.44939 180.232 3.26163 180.084 2.88612L179.96 2.57316C179.93 2.49804 179.916 2.46048 179.888 2.43277C179.86 2.40507 179.822 2.39028 179.747 2.36071L179.436 2.23819C179.059 2.08975 178.87 2.01553 178.87 1.887C178.87 1.75847 179.059 1.68425 179.436 1.53581L179.747 1.41329C179.822 1.38372 179.86 1.36893 179.888 1.34123C179.916 1.31352 179.93 1.27596 179.96 1.20084L180.084 0.887881Z" fill="#563BD9"/>
<path d="M177.247 2.7749C177.395 2.39939 177.47 2.21163 177.598 2.21163C177.726 2.21163 177.8 2.39939 177.949 2.7749L178.34 3.7645C178.37 3.83962 178.385 3.87718 178.412 3.90489C178.44 3.93259 178.478 3.94738 178.553 3.97696L179.542 4.36633C179.92 4.51477 180.108 4.58899 180.108 4.71752C180.108 4.84605 179.92 4.92027 179.542 5.06871L178.553 5.45809C178.478 5.48767 178.44 5.50246 178.412 5.53016C178.385 5.55786 178.37 5.59542 178.34 5.67054L177.949 6.66014C177.8 7.03566 177.726 7.22341 177.598 7.22341C177.47 7.22341 177.395 7.03566 177.247 6.66014L176.856 5.67054C176.826 5.59542 176.811 5.55786 176.783 5.53016C176.756 5.50246 176.718 5.48767 176.643 5.45809L175.653 5.06871C175.276 4.92027 175.088 4.84605 175.088 4.71752C175.088 4.58899 175.276 4.51477 175.653 4.36633L176.643 3.97696C176.718 3.94738 176.756 3.93259 176.783 3.90489C176.811 3.87718 176.826 3.83962 176.856 3.76451L177.247 2.7749Z" fill="#563BD9"/>
</svg>
